<?xml version="1.0" encoding="UTF-8" standalone="no"?>
<!-- Created with Inkscape (http://www.inkscape.org/) -->

<svg
   width="320"
   height="160"
   viewBox="0 0 84.666664 42.333334"
   id="svg928"
   sodipodi:docname="mfn_logo_icon_white.svg"
   inkscape:version="1.1.2 (0a00cf5339, 2022-02-04)"
   version="1.1"
   xmlns:inkscape="http://www.inkscape.org/namespaces/inkscape"
   xmlns:sodipodi="http://sodipodi.sourceforge.net/DTD/sodipodi-0.dtd"
   xmlns="http://www.w3.org/2000/svg"
   xmlns:svg="http://www.w3.org/2000/svg">
  <sodipodi:namedview
     id="namedview38"
     pagecolor="#ffffff"
     bordercolor="#666666"
     borderopacity="1.0"
     inkscape:pageshadow="2"
     inkscape:pageopacity="0.0"
     inkscape:pagecheckerboard="0"
     showgrid="false"
     inkscape:zoom="0.73691383"
     inkscape:cx="200.15909"
     inkscape:cy="46.816871"
     inkscape:window-width="1312"
     inkscape:window-height="704"
     inkscape:window-x="0"
     inkscape:window-y="0"
     inkscape:window-maximized="1"
     inkscape:current-layer="layer1"
     borderlayer="true" />
  <defs
     id="defs922" />
  <metadata
     id="metadata925" />
  <g
     inkscape:label="Layer 1"
     inkscape:groupmode="layer"
     id="layer1"
     transform="translate(0,-254.66664)">
    <path
       inkscape:connector-curvature="0"
       id="path402-7-0"
       style="fill:#ff0000;fill-opacity:1;fill-rule:evenodd;stroke:none;stroke-width:0.0552577"
       d="m 138.30835,212.76902 c -0.0909,-0.0619 0.0705,-0.14693 0.0908,-0.205 0.0908,0.0619 -0.0705,0.14645 -0.0908,0.205" />
    <path
       inkscape:connector-curvature="0"
       id="path406-7-3"
       style="fill:#ff0000;fill-opacity:1;fill-rule:evenodd;stroke:none;stroke-width:0.0552577"
       d="m 141.62495,218.84958 c 0.0579,-0.0614 -0.0313,0.31056 -0.072,0.38513 -0.0642,-0.0791 0.0548,-0.27351 0.072,-0.38513" />
    <path
       inkscape:connector-curvature="0"
       id="path408-2-7"
       style="fill:#ff0000;fill-opacity:1;fill-rule:evenodd;stroke:none;stroke-width:0.0552577"
       d="m 141.51219,210.89411 c 0.0548,0.0636 0.15912,0.0851 0.19844,0.16136 -0.0705,0.0774 -0.19283,-0.0774 -0.19844,-0.16136" />
    <g
       id="g3642"
       transform="matrix(1.9415152,0,0,1.9415152,-25.524645,-257.91312)"
       style="fill:#ffffff">
      <g
         id="text3002-4-6-7"
         style="font-style:normal;font-variant:normal;font-weight:normal;font-stretch:normal;font-size:11.5896px;line-height:1.25;font-family:'Lato Black';-inkscape-font-specification:'Lato Black, ';letter-spacing:0px;word-spacing:0px;fill:#ffffff;fill-opacity:1;stroke:none;stroke-width:0.28974"
         aria-label="MISSION"
         transform="matrix(1.2813822,0,0,1.2813822,-726.501,-212.68477)">
        <path
           id="path1552-5"
           style="font-style:normal;font-variant:normal;font-weight:normal;font-stretch:normal;font-family:'Lato Black';-inkscape-font-specification:'Lato Black, ';fill:#ffffff;stroke-width:0.28974"
           d="m 588.90146,375.07032 v 8.40826 h -1.53563 v -5.16317 q 0,-0.16226 0.006,-0.34769 0.0116,-0.18543 0.0348,-0.37666 l -2.40485,4.56051 q -0.19702,0.37666 -0.60845,0.37666 h -0.24338 q -0.20282,0 -0.35928,-0.0927 -0.15646,-0.0985 -0.24918,-0.28394 l -2.41643,-4.5779 q 0.0174,0.20282 0.029,0.39405 0.0116,0.18543 0.0116,0.34769 v 5.16317 h -1.53562 v -8.40826 h 1.32122 q 0.1101,0 0.19702,0.006 0.0869,0.006 0.15067,0.0348 0.0695,0.0232 0.12169,0.0811 0.0579,0.0522 0.1101,0.15066 l 2.35269,4.48518 q 0.1101,0.20282 0.20282,0.41723 0.0985,0.2144 0.18543,0.4404 0.0869,-0.23179 0.17964,-0.45199 0.0985,-0.22021 0.20861,-0.42302 l 2.33531,-4.4678 q 0.0521,-0.0985 0.1101,-0.15066 0.058,-0.058 0.12169,-0.0811 0.0695,-0.029 0.15066,-0.0348 0.0869,-0.006 0.20282,-0.006 z"
           inkscape:connector-curvature="0" />
      </g>
      <g
         id="text3006-3-4-2"
         style="font-style:normal;font-variant:normal;font-weight:normal;font-stretch:normal;font-size:11.5896px;line-height:1.25;font-family:'Lato Black';-inkscape-font-specification:'Lato Black, ';letter-spacing:0px;word-spacing:0px;fill:#ffffff;fill-opacity:1;stroke:none;stroke-width:0.28974"
         aria-label="FIELD"
         transform="matrix(1.2813822,0,0,1.2813822,-780.89163,-212.68477)">
        <path
           id="path1541-7"
           style="font-style:normal;font-variant:normal;font-weight:normal;font-stretch:normal;font-family:'Lato Black';-inkscape-font-specification:'Lato Black, ';fill:#ffffff;stroke-width:0.28974"
           d="m 635.84092,376.4321 v 2.32371 h 3.02489 v 1.36758 h -3.02489 v 3.35519 h -1.75003 v -8.40826 h 5.3544 v 1.36178 z"
           inkscape:connector-curvature="0" />
      </g>
      <g
         id="text3010-7-5-0"
         style="font-style:normal;font-variant:normal;font-weight:normal;font-stretch:normal;font-size:11.5896px;line-height:1.25;font-family:'Lato Black';-inkscape-font-specification:'Lato Black, ';letter-spacing:0px;word-spacing:0px;fill:#ffffff;fill-opacity:1;stroke:none;stroke-width:0.28974"
         aria-label="NOTES"
         transform="matrix(1.2813822,0,0,1.2813822,-818.29596,-212.68477)">
        <path
           id="path1530-6"
           style="font-style:normal;font-variant:normal;font-weight:normal;font-stretch:normal;font-family:'Lato Black';-inkscape-font-specification:'Lato Black, ';fill:#ffffff;stroke-width:0.28974"
           d="m 677.8589,375.07032 v 8.40826 h -0.8982 q -0.20282,0 -0.34189,-0.0638 -0.13908,-0.0695 -0.27236,-0.23179 l -4.18964,-5.33122 q 0.0174,0.20282 0.0232,0.39985 0.0116,0.19702 0.0116,0.36507 v 4.86184 h -1.53562 v -8.40826 h 0.91558 q 0.1101,0 0.18543,0.0116 0.0811,0.006 0.14487,0.0406 0.0637,0.029 0.12169,0.0811 0.058,0.0521 0.12749,0.13907 l 4.21861,5.3544 q -0.0232,-0.2202 -0.0348,-0.42302 -0.0116,-0.20861 -0.0116,-0.39405 v -4.80968 z"
           inkscape:connector-curvature="0" />
      </g>
      <path
         inkscape:connector-curvature="0"
         id="path628-7-9"
         style="fill:#ffffff;fill-opacity:1;fill-rule:evenodd;stroke:none;stroke-width:0.0251073"
         d="m 18.26491,284.04562 c 0.04133,-0.1091 0.109819,0.0114 0.130951,-0.14808 -0.05627,0.0128 -0.05179,0.0326 -0.08744,-0.0297 -0.0056,0.0511 0.02179,0.0758 0,0.089 -0.01693,-0.005 -0.01575,-0.0465 -0.01438,-0.089 -0.05889,0.064 -0.07545,0.0955 -0.116555,0.11874 0.0389,0.0508 0.05539,-0.0211 0.08742,0.059 z m -0.189321,-0.17776 c 0.04039,-0.0433 0.08642,0.0426 0.116355,-0.059 -0.04388,0.0101 -0.113044,-0.0326 -0.116355,0.059 z m 0.640617,0.0297 c 0.02969,-0.008 0.02857,-0.0798 0.05832,-0.0887 0,0.0297 0,0.059 0,0.0887 0.02172,-0.005 0.05371,0.0107 0.05839,-0.0297 -0.04574,0.0143 -0.03853,-0.0791 -0.07299,-0.0883 0.0073,0.0672 -0.08033,0.0883 -0.04369,0.11803 z m -0.713582,0.0594 c 0.05315,0.0616 0.06732,0.0193 0.131142,0.0593 0.0069,-0.13413 -0.06815,-0.0808 -0.101889,-0.0593 1.93e-4,-0.059 0.03984,-0.0375 0.02907,-0.11838 -0.03641,0.0394 -0.03529,-0.13736 -0.05832,-0.0297 0.0463,0.0426 -0.07113,0.0426 -0.07277,0 0.0044,0.0587 -0.01967,0.0587 -0.02913,0.0887 0.05851,0.0204 0.0831,-0.0283 0.131156,-0.0297 0.0044,0.0587 -0.01967,0.059 -0.02925,0.089 z m 0.3058,-0.14807 c 0.07029,0.0101 0.150425,0.0619 0.13123,-0.059 -0.03754,0.0983 -0.114843,-0.0593 -0.13123,0.059 z m 1.893333,-0.0294 c 0.04295,-0.0257 -0.03374,-0.0443 -0.01469,-0.11839 -0.02694,0.0164 -0.132183,0.0243 -0.101889,0.059 0.03393,0 0.06795,0 0.101889,0 -0.0032,0.0375 -0.02272,0.0604 0.01469,0.0593 z m -0.611694,-0.11839 c 0.02309,0.13555 -0.06044,0.055 -0.05825,0.14772 0.01593,0.0118 0.03498,0.0358 0.0145,0 0.04283,-0.0472 0.166739,0.0143 0.218593,-0.0887 -0.07374,-0.002 -0.14948,0.0862 -0.174869,-0.059 z m -0.349389,0.0887 c 0,-0.0394 0,-0.0787 0,-0.11805 -0.119111,0.0197 -0.04357,0.0407 0,0.11805 z m 7.252098,-0.059 c -0.0013,-0.0468 -0.03716,-0.0232 -0.02907,-0.0887 -0.02876,-0.008 -0.02895,0.04 -0.04369,0.059 -0.01811,-0.006 -0.02976,-0.0461 -0.02907,0.0297 0.04108,-0.0544 0.126369,0.048 0.101871,0 z m -6.480336,0.059 c -0.01283,-0.13735 0.03766,0.0412 0.04364,-0.059 -0.08812,-0.007 0.06817,-0.064 0.0145,-0.0887 -0.0371,0.0522 -0.071,0.0759 -0.101982,0 -0.0044,0.0602 -0.02925,0.0787 -0.04369,0.11804 0.02719,-0.0283 0.04868,0.0887 0.05832,0 -0.02004,-0.002 -0.01537,-0.0755 0.0145,-0.059 0.0024,0.0351 -0.0024,0.084 0.01469,0.0887 z m -0.640829,-0.0887 c 0.05564,0.005 0.106028,-6e-4 0.130951,-0.059 -0.05278,5.9e-4 -0.114893,-0.0169 -0.130951,0.059 z m -0.116554,0 c 0.02981,0.009 0.02856,0.0801 0.05838,0.0887 -0.01674,-0.0927 0.02284,-0.0718 0.02913,-0.11805 -0.02272,-0.0487 -0.068,-0.0128 -0.0875,0.0293 z m 5.592295,-0.14773 c -0.04419,0.0187 -0.125485,-0.0375 -0.145752,0.0297 0.04425,-0.0182 0.125486,0.0379 0.145752,-0.0297 z m -3.757351,0.0594 c -3.8e-4,0.12555 0.103751,0.0354 0.116567,0 -0.02857,0.009 -0.02895,-0.04 -0.04382,-0.0594 -0.0163,0.10089 -0.01711,0.0705 -0.07277,0.0594 z m -0.247498,0 c 0.01755,0.006 0.009,0.0326 0,0.059 0.02533,-0.002 0.04531,0.006 0.0582,0.0294 0.02545,-0.0602 -0.01077,-0.0579 0.01463,-0.11803 -0.0201,6e-4 -0.03193,-0.014 -0.04364,-0.0297 -1.86e-4,0.0394 -0.02552,0.0272 -0.02913,0.0594 z m -0.131143,0.059 c 0.04886,0.007 0.09191,0.0637 0.116479,-0.0297 -0.01967,0.005 -0.02907,-0.15023 -0.04369,-0.059 0.05166,0.069 -0.06837,0.0359 -0.07284,0.0887 z m 4.252489,-0.059 c 0.0032,-0.099 -0.05408,-0.0133 -0.08741,-0.089 3.73e-4,0.0412 -0.007,0.0651 -0.01444,0.089 0.05304,-0.006 0.05571,-0.0407 0.101865,0 z m -1.077666,-0.089 c -0.03498,0.0182 -0.10568,-0.0368 -0.116566,0.0297 0.02328,0.0435 0.08882,0.007 0.116566,-0.0297 z m -2.09705,0.17741 c -0.01537,-0.10945 0.04911,-0.0579 0.0582,-0.11803 -0.05384,-0.0185 -0.145054,0.0381 -0.174732,-0.0297 0.01537,-6e-4 0.01145,-0.0375 -0.01463,-0.0297 0.01911,0.18601 0.161915,0.0164 0.131143,0.17741 z m -2.970827,-0.14772 c 0.01997,0.0676 -0.03753,0.11124 0,0.11839 0.01711,-0.0612 0.06292,0.0307 0.08723,-0.059 -0.0544,0.0316 -0.04139,-0.0737 -0.08723,-0.0593 z m -0.131162,0.0297 c 0,0.0297 0,0.059 0,0.0887 0.04407,0.0218 0.0785,-0.21533 0.02907,-0.11839 0.009,0.002 0.01737,0.005 0.01469,0.0297 -0.01469,0 -0.02913,0 -0.04369,0 z m 4.922281,0 c 0.02459,-0.0753 0.0972,0.0637 0.116548,-0.0594 -0.03373,-0.0182 -0.149735,-0.0282 -0.116548,0.0594 z m -1.121292,-0.0887 c -0.009,0.10623 0.09843,0.13091 0.116485,0.0294 -0.05782,0.0107 -0.0282,6e-4 -0.116485,-0.0294 z m -4.339772,0.0887 c -0.03865,-0.0346 -0.08563,0.0565 -0.08743,0 1.93e-4,-0.039 0.02552,-0.0272 0.02913,-0.0594 -0.02552,0.0271 -0.07265,0.0107 -0.08744,0.0594 0.06918,-0.0257 0.04045,0.0719 0.05832,0.0887 0.0032,-0.0329 0.01618,-0.0461 0.02913,-0.059 -0.01743,0.0876 0.06149,0.12698 0.07276,0.059 -0.01711,-0.0143 -0.03305,-0.0318 -0.04369,-0.059 0.04973,-0.0665 0.175821,0.0218 0.203911,-0.089 -0.0501,-0.10729 -0.09708,0.0959 -0.11648,-0.0294 0.0084,0.15596 -0.113111,-0.0459 -0.05825,0.0887 z m 6.436736,-0.0297 c 0.0088,0.0172 0.06908,0.0693 0.07279,0 -0.09323,-0.0351 0.01201,-0.019 0.01463,-0.0887 -0.01942,0 -0.03878,0 -0.05833,0 0.0044,0.0583 -0.0196,0.0587 -0.02907,0.0887 z m -0.436732,-0.0297 c -0.07843,0.0354 -0.07737,0 -0.13125,-0.059 -0.0211,0.0658 -0.09603,0.0218 -0.101884,0.1184 0.115521,-0.0394 0.169154,0.0354 0.233134,-0.0594 z m 1.572812,0.1184 c 0,-0.039 0.0254,-0.0269 0.02907,-0.059 -0.04457,-0.0291 0.0065,-0.0998 0.01463,-0.1184 -0.01463,0 -0.02925,0 -0.04369,0 0.02029,0.0852 -0.03984,0.15023 0,0.17741 z m -1.485568,-0.0887 c 0.04649,0.015 0.192103,0.0451 0.189284,0 -0.04425,0.0283 -0.09447,-0.17096 -0.07279,-0.0887 0.01145,0.1116 -0.08424,0.003 -0.116492,0.0887 z m -1.572813,0.0887 c 0.127913,-0.1706 0.270223,0.0126 0.378641,-0.1184 -0.06782,0.0262 0.0098,-0.0969 -0.02907,-0.0883 -0.02775,0.10766 -0.09639,0.11052 -0.08743,0 -0.05197,0.14664 -0.220871,0.0211 -0.291297,0.0883 0.01643,-0.0422 0.01569,-0.0718 -0.01456,-0.0883 0.005,0.088 0.0085,0.1799 0.04369,0.20674 z M 21.4977,283.39542 c -0.06429,-0.0143 -0.07221,0.0405 -0.116262,0 -3.79e-4,0.12555 0.103596,0.0359 0.116262,0 z m 3.961218,0.0883 c 0.01307,-0.1148 0.05359,0.0983 0.05813,0 -0.0088,-5.9e-4 -0.01706,-0.004 -0.01444,-0.0293 0.02029,0.002 0.05571,-0.006 0.02907,-0.0297 -0.04569,0.0494 -0.05956,-0.10944 -0.07278,-0.0294 -3.79e-4,0.0143 -3.79e-4,0.16275 0,0.0883 z m -0.407654,-0.059 c 0.0229,-0.003 0.05042,0.004 0.04351,-0.059 -0.02907,0 -0.05813,0 -0.08724,0 0.01513,0.0772 0.03964,0.10048 0,0.17739 -0.0183,-0.006 -0.02976,-0.0461 -0.02925,0.0297 0.07244,-0.0547 0.159856,0.0541 0.232996,-0.0297 -0.05216,0.0107 -0.102046,-0.0633 -0.16003,-0.11838 z m -0.08742,0.0297 c -0.009,0.002 -0.0173,0.004 -0.01463,0.0293 0.02185,-0.005 0.05378,0.0111 0.05832,-0.0293 -0.06006,0.014 0.01394,-0.0794 -0.04369,-0.0887 -0.02895,0.0609 -0.02895,0.0278 0,0.0887 z m -4.616473,0.059 c 0.01463,0.03 0.07931,0.0114 0.101889,-0.0297 -0.04301,-0.0197 -0.05458,-0.0751 -0.01444,-0.11803 -0.01949,0 -0.0389,0 -0.05838,0 -0.01618,0.069 0.0032,0.0794 -0.02907,0.14772 z m -1.106697,-0.0887 c -0.05496,-0.015 -0.06651,-0.0372 -0.08744,0.059 0.03847,0 0.08564,0.0169 0.08744,-0.059 z m -0.08744,0.0297 c -0.06149,-0.11802 0.03219,-0.0625 0.01438,-0.11838 -0.03006,0.0179 -0.09549,-0.0362 -0.101821,0.0297 0.03056,0.0265 0.06472,0.0458 0.08744,0.0887 z m 3.931927,0.0887 c 0.09549,-0.049 0.302433,0.0122 0.378641,-0.0594 -0.03006,-0.0175 -0.0957,0.0368 -0.101883,-0.0294 -0.03368,-0.1209 0.0866,-0.0759 0.02907,-0.14772 -0.0549,0.191 -0.165376,0.12483 -0.305807,0.23643 z m -0.451509,-0.17741 c 0.04942,0.008 0.118141,-0.0225 0.145683,0.0297 -0.01513,-0.0923 -0.129767,-0.10838 -0.145683,-0.0297 z m -2.30083,0.059 c 0.0024,-0.0343 -0.0024,-0.0836 0.0145,-0.0887 0.0013,0.0182 0.0019,0.0351 0.01463,0.0297 0.0019,-0.0529 -0.01444,-0.069 -0.04369,-0.059 -0.0037,0.0966 -0.06526,0.0955 -0.07281,0.0294 -2.86e-4,0.049 -0.0404,0.0169 -0.04369,0.0594 0.05235,0.034 0.109601,0.11589 0.131069,0.059 -0.03398,-0.0164 -0.03398,-0.089 0,-0.0297 z m 2.49017,-0.0294 c 0.02932,-0.0494 0.107951,0.002 0.131218,-0.0594 -0.0173,-0.005 -0.04151,0.005 -0.04382,-0.0294 0.0088,-0.002 0.0173,-0.005 0.0145,-0.0297 -0.05888,-0.0407 -0.046,0.0644 -0.0873,0.059 0,-0.0164 -0.01182,-0.0337 -0.01469,0 0.01767,0.007 0.009,0.0329 0,0.0594 z m 1.572812,0.059 c 0.03878,-0.0662 0.0742,0.044 0.101872,-0.0297 -0.01767,-0.003 -0.03435,-0.008 -0.02907,-0.059 0.01145,-0.006 0.02876,-6e-4 0.02907,-0.0297 -0.06698,-0.0136 -0.06012,0.006 -0.08724,-0.0883 -0.09288,0.063 0.06856,0.0697 -0.01463,0.20673 z m -0.509629,-0.14772 c 0.0112,0.007 0.02876,6e-4 0.02907,0.0293 -0.01711,0.005 -0.04133,-0.005 -0.04369,0.0297 0.04556,0.006 0.106832,-0.0197 0.131069,0.0297 -0.02446,-0.0529 -0.103614,-0.19422 -0.116479,-0.0887 z m 0.130932,-0.0297 c 0.03498,-0.14344 0.06056,0.005 0.08754,-0.0883 0.01463,0 0.01724,0.0236 0.02906,0.0293 -0.04475,-0.1688 -0.103881,0.04 -0.14567,-0.11838 0.0229,0.13555 -0.06044,0.0547 -0.0582,0.14808 0.05322,0.0193 0.05577,-0.0644 0.101889,-0.059 0.0078,0.0422 -0.05676,0.0718 -0.01469,0.0883 z m -0.40769,-0.059 c 0.0544,-0.0315 0.02302,0.11088 0.07277,0.0887 0.05147,-0.008 -0.05141,-0.0801 0,-0.0887 0.05732,0.077 0.12088,-0.034 0.174731,0.059 0.0019,-0.0751 0.02117,-0.11445 0.05832,-0.11803 0,0.0297 -0.01182,0.0351 -0.01463,0.059 0.03647,0.005 0.04569,-0.0454 0.05838,-0.0887 -0.107827,0.0294 -0.204837,-0.0609 -0.262168,0.0297 0.01581,0.007 0.03498,0.0487 0.01444,0.059 -0.03006,-0.003 -0.117524,-0.0494 -0.10189,0 z m -1.805821,-0.059 c -0.01052,-0.0808 0.02888,-0.0597 0.02907,-0.11839 -0.06335,0.0407 -0.08104,-0.008 -0.160073,0 0.0037,0.13843 -0.05658,-0.0378 -0.05832,0.0887 0.0305,0.0372 0.0399,0.11589 0.07276,0.14772 0.02652,-0.11731 0.09006,0.0118 0.145615,0 -0.07932,0.0912 -0.102507,0.0602 -0.189259,0.0887 -0.01226,0.0833 0.135768,0.0572 0.160211,0.14771 0.0032,-0.0354 0.01618,-0.0182 0.02907,0 0.0044,-0.0579 -0.01955,-0.0587 -0.02907,-0.0887 0.02005,5.9e-4 0.03206,-0.014 0.04369,-0.0294 -0.0091,0.14986 0.104094,-0.0161 0.05839,-0.0297 0.0068,0.0394 -0.06678,0.002 -0.07305,-0.0297 0.0019,-0.10945 0.02141,-0.074 0.05838,-0.059 -0.04924,-0.10193 -0.137013,-0.0894 -0.174674,-0.0883 3.72e-4,-0.0407 -0.0069,-0.0651 -0.01469,-0.089 0.04301,0.024 0.05889,0.0354 0.101908,0.0594 z m -0.218457,-0.0887 c -0.03554,0.0693 0.02179,0.0547 0.01469,0.14771 -0.01936,0.0722 -0.04406,-0.0529 -0.05832,0.0297 0.01917,0 0.01331,0.0518 0.02907,0.059 0.0032,-0.0354 0.01618,-0.0182 0.02925,0 0.0019,-0.0351 -0.0024,-0.0836 0.0145,-0.0887 0.0032,0.0232 3.36e-4,0.0583 0.01469,0.059 2.87e-4,-0.099 -0.02017,-0.15594 -0.04381,-0.20674 z m -0.01463,0.0887 c -0.02627,-0.0451 -0.0501,-0.0955 -0.08722,-0.11839 0.0037,0.0955 -0.120693,-0.0275 -0.203991,0.059 0.01133,0.007 0.01699,0.0247 0.01469,0.0594 0.0963,-0.0887 0.228012,-0.002 0.276553,0 z m -0.378642,0.11803 c -0.03548,0.0426 -0.15822,-0.004 -0.160067,0.059 0.06747,-0.025 0.01537,0.0468 0.04351,0.0594 0.0037,-0.0415 0.03205,-0.034 0.04388,-0.0594 -0.01892,0.0693 0.0074,0.0665 -0.02925,0.1184 0.08021,0.0147 0.190853,-0.0325 0.247635,0.0294 -0.0044,-0.0579 0.01967,-0.0583 0.02913,-0.0883 -0.084,-0.006 -0.137008,0.0278 -0.233047,0 0.0013,-0.0763 0.05683,-0.0422 0.0582,-0.11838 z m 0.102095,-0.0883 c -0.07732,0.0365 -0.0389,0.004 -0.02925,-0.11839 -0.06711,-0.0269 -0.09568,0.0919 -0.116336,-0.0297 -0.04002,0.0622 -0.06094,0.0508 -0.07305,0.11839 0.08283,0.0229 0.108992,-0.0587 0.145827,0 -0.01949,0.0297 -0.05416,0.0278 -0.05839,0.0887 0.04587,0.034 0.03554,-0.0465 0.05839,-0.059 -0.0044,0.0579 0.01967,0.0583 0.02906,0.0883 -0.02558,0.0557 -0.045,-0.04 -0.05832,0.059 0.04649,-0.025 0.05539,0.0258 0.07283,0.0594 0.0211,-0.15846 0.05297,-0.0866 0.116698,-0.0594 0.0037,-0.058 -0.01986,-0.0583 -0.02932,-0.0883 0.137206,0.004 0.08109,-0.0211 0,-0.059 0.0013,0.0508 -0.01114,0.0754 -0.02907,0.0883 -0.0024,-0.0346 0.0024,-0.0836 -0.01444,-0.0883 -0.01481,0.039 -0.01388,0.10979 -0.04388,0.11803 -0.01058,-0.0805 0.02907,-0.0593 0.02925,-0.11803 z m 1.398051,0.059 c 0.05851,0.0111 0.03554,0.019 0.08729,0.059 0.04675,-0.0715 0.0356,-0.0676 0.01463,-0.1774 0.0211,0.0258 0.05627,0.0232 0.04369,0.11839 0.102786,-0.0101 0.127832,0.0465 0.189184,0 -0.02029,-0.0852 0.03971,-0.15022 0,-0.17741 -0.06218,0.0101 -0.161654,-0.0117 -0.218456,0.059 0.01251,-0.0602 -0.02285,-0.16275 -0.02907,-0.0887 -0.05029,0.039 -0.04948,0.0908 -0.0873,0.20709 z m -0.305894,-0.059 c 0.06767,-0.0876 0.09681,0.0232 0.145615,-0.11839 -0.04731,0.0172 -0.06782,-0.0204 -0.102027,-0.0297 -0.0032,0.0229 -3.3e-4,0.0583 -0.01444,0.059 -0.01786,-0.0426 -0.05564,-0.0447 -0.07277,-0.0883 -0.0019,0.12269 -0.0096,0.006 -0.02913,0 -0.01823,0.0616 -0.05714,0.0812 -0.07296,0.14772 0.03529,-0.0122 0.03181,0.0536 0.07296,0.0297 0.02732,-0.14844 0.08518,-0.0508 0.07278,0 z m -1.427093,0.0293 c 0.03237,0.0232 0.0567,0.0622 0.101891,0.059 0.0032,-0.0229 3.35e-4,-0.0583 0.01438,-0.059 0.01469,0 0.01743,0.0236 0.02925,0.0297 -0.01394,-0.12267 -0.126282,-0.0164 -0.145546,-0.0297 z m 0,-0.1184 c -0.03392,-0.0784 -0.03915,0.0787 -0.07284,0 3.8e-4,0.0407 -0.0069,0.0651 -0.01463,0.089 0.05347,-0.0208 0.110629,-0.0512 0.160211,0 0.0056,-0.12376 0.01787,-0.02 0.04351,-0.14807 -0.04936,0.005 -0.07986,0.0655 -0.101883,-0.0294 -0.0032,0.055 -0.02391,-0.0169 -0.02907,0.0294 0.01133,0.007 0.01687,0.0246 0.01463,0.059 z m 0.961089,-0.0294 c 0.01911,0.004 0.105338,0.005 0.05832,-0.0297 -0.03498,0.0182 -0.105818,-0.0372 -0.116567,0.0297 0.04638,0.0136 -0.08413,0.0576 -0.01463,0.11839 0.0068,0.002 0.116696,-0.0866 0.131162,0.0293 -0.03386,0.009 -0.0559,-0.005 -0.07277,-0.0293 0.04518,0.0686 0.06932,0.15344 0.08723,0.20674 0.02409,-5.9e-4 0.0083,-0.0819 0.029,-0.0887 0.0071,0.0525 0.01569,-0.0128 0.02913,-0.0297 0.0044,0.04 0.02079,0.0565 0.01469,0.11841 -0.0173,-0.004 -0.03304,-0.0525 -0.04382,0 0.02328,0.006 0.07642,0.0966 0.04382,0.11802 -0.04855,-0.14593 -0.08855,0.007 -0.145615,-0.059 -0.0079,0.15021 0.05166,0 0.04369,0.11839 0.05633,-0.0337 0.13219,-0.0272 0.174731,-0.0891 0.0013,0.0332 -0.02122,0.0461 0,0.0593 0.0013,-0.0183 0.0024,-0.0346 0.01469,-0.0297 0,-0.0297 0.0117,-0.0346 0.01444,-0.059 -0.04114,-0.005 -0.09983,0.0257 -0.101885,-0.059 0.05745,-0.009 -0.01077,-0.0915 0.02925,-0.11839 0.0544,-0.0315 0.04139,0.0733 0.08722,0.059 0.007,-0.0346 0.0155,-0.0669 0.02907,-0.0883 0.0013,0.0722 0.04824,0.006 0.04376,-0.0297 -0.04569,0.006 -0.106931,-0.0201 -0.131025,0.0297 3.8e-4,-0.0407 -0.0069,-0.0651 -0.01469,-0.0887 0.01238,0.0275 0.09281,0.0633 0.101909,0 -0.01686,-0.005 -0.01581,-0.0468 -0.0145,-0.0887 0.0211,0.0333 0.03554,0.0319 0.04357,-0.0297 -0.02409,0 -0.04855,0 -0.07277,0 -0.0013,0.0465 0.0019,0.10265 -0.02913,0.0887 0.0077,-0.0754 0.01936,-0.10336 -0.0145,-0.14772 -0.03405,0.14129 -0.149057,0.20567 -0.203924,0.0887 z m -1.354413,0.32513 c 0.03119,-0.0511 0.09674,-0.0114 0.116572,0 -0.0037,0.15058 -0.220522,0.0247 -0.189402,0.14771 0.07503,0.004 0.153514,-0.0773 0.23304,-0.0593 -0.0356,-0.13126 0.03256,-0.10623 0.01469,-0.14771 -0.02185,-0.005 -0.05384,0.0107 -0.05832,-0.0294 0.03093,-0.055 0.03211,-0.17096 0.101884,-0.14772 -0.0044,0.0601 -0.0394,0.0579 -0.04357,0.11804 0.06678,-0.019 0.04531,-0.0461 0.0582,-0.14773 -0.108424,-0.014 -0.06541,-0.0101 -0.174655,0.0297 0.03304,-0.008 0.05465,0.007 0.0582,0.059 -0.06989,0.0528 -0.09982,0.12841 -0.145615,0.0887 0.05073,0.009 -0.0013,0.0801 0.02907,0.0887 z m 0.01463,-0.32513 c 3.79e-4,-0.0312 0.0186,-0.0232 0.0145,0.0294 0.05141,-0.0137 0.140387,0.0487 0.131076,-0.0883 -0.04924,0.078 -0.154006,-0.039 -0.145609,0.059 z m -0.02907,-0.059 c -0.08261,-0.0294 -0.190696,0.12519 -0.233052,-0.0297 -0.04731,0.16095 -0.10278,-0.0407 -0.145596,0.0887 -0.02147,-0.10766 -0.07113,0.0483 -0.08743,-0.059 -0.03461,0.0777 -0.139285,0.10301 -0.189322,0 -0.110155,0.0265 -0.316007,0.17884 -0.495145,0 -0.110013,0.18742 -0.21583,0.0722 -0.349388,0.0883 -0.327567,0.15273 -0.744774,0.034 -1.019471,0.1774 0,-0.0297 0.0117,-0.0354 0.01444,-0.059 -0.300522,0.0819 -0.801232,0.14842 -1.121361,0.23641 -0.05166,0.0143 -0.247977,0.0208 -0.174669,0.059 0.0582,0 0.116492,0 0.174669,0 0.02521,0.0119 0.0374,-0.044 0.04376,0 -0.01929,0 -0.01326,0.0519 -0.02913,0.0594 -0.03336,-0.0182 -0.105892,-0.019 -0.145614,0.0294 0.05185,0.0687 0.150439,0.0218 0.18934,-0.0294 0.0013,0.033 -0.02122,0.0458 0,0.059 0.11496,-0.0633 0.252315,-0.0869 0.393094,-0.0297 -0.0886,-0.0572 -0.02272,0.15954 -0.101884,0.17741 -0.01126,-0.0662 0.06725,-0.0941 0.01463,-0.14771 0.0013,0.12375 -0.0955,0.21996 -0.131075,0.0883 0.02353,0.0916 0.01257,0.11516 0.02907,0.17741 0.01843,-0.13557 0.08296,-0.0637 0.145614,-0.059 0.0019,-0.12233 0.0096,-0.006 0.02925,0 -0.01257,-0.17313 0.05166,-0.19065 0.07284,-0.29545 0.09686,-0.0232 0.154901,0.24573 0.218369,0.0297 -0.0272,-0.0283 -0.04868,0.0883 -0.05832,0 0.287228,-0.12589 0.618846,-0.18705 0.888453,-0.14807 -0.07526,-0.034 -0.08628,0.0619 -0.131144,0.0887 -0.0013,-0.0333 0.0211,-0.0461 0,-0.059 -0.01432,0.17561 0.126333,0.006 0.160186,-0.0887 1.43e-4,0.0394 0.02545,0.0268 0.02913,0.059 -0.031,0.0358 -0.07938,0.0365 -0.08729,0.11838 0.03647,0.1091 0.111395,-0.0232 0.130938,0.0887 -0.02091,-0.0329 -0.03535,-0.0321 -0.04369,0.0294 0.09018,0.0211 0.116268,-0.16273 0.11648,-0.23642 0.0422,-0.015 0.182786,0 0.21845,-0.059 -0.0975,-0.0269 -0.169565,0.0519 -0.20386,0 0.38314,-0.11446 0.587462,-0.0901 0.917449,-0.17705 0.0013,0.0465 0.0371,0.0232 0.02907,0.0883 -0.06595,0.0337 -0.199851,-0.0705 -0.218368,0.059 0.08227,-0.0215 0.103738,0.0153 0.174868,-0.0294 0.04868,0.0762 -0.05932,0.17527 -0.02925,0.20674 0.04749,-0.055 0.08324,-0.068 0.116498,-0.0887 0.01382,0.12521 0.02185,0.0702 0.02907,0.0297 0.01824,0.0412 0.08248,0.0128 0.04382,0.0887 0.0371,-0.0225 0.06693,-0.0436 0.08744,0.0297 -0.03934,-0.0483 -0.07478,0.04 -0.116573,-0.0297 0.0019,0.16525 0.06678,0.0204 0.131163,0.059 0.0032,0.0232 3.36e-4,0.0583 0.01444,0.059 0.005,-0.23964 -0.167499,-0.21782 -0.160279,-0.29544 0.02763,-0.033 0.05116,-0.0737 0.08744,-0.0887 -0.0032,0.0422 -0.0239,0.05 -0.02907,0.0887 0.05988,-0.0527 0.04058,-0.0909 0.130927,-0.059 0.03603,-0.0351 -0.02976,-0.1116 0.01469,-0.14771 0.03698,-0.0225 0.02446,0.20171 0.05832,0.0887 -0.009,-0.0232 0.03155,-0.0536 0.02913,-0.11839 0.03318,0.0508 0.07346,-0.0307 0.101908,0.0297 -0.04462,0.0179 -0.07594,0.0629 -0.116566,0.0887 0.07099,0.21388 0.0085,-0.0973 0.08744,0.059 -0.07517,0.0422 0.01618,0.0458 0.0145,0.059 -0.173711,0.0161 -0.03262,0.0377 -0.101978,0.14772 0.0577,-0.0379 0.02981,0.0976 0.08744,0.0594 0.0056,-0.0509 -0.0216,-0.0759 0,-0.089 0.06836,-0.0291 0.05757,0.16597 0.101972,0.0297 -0.102096,-0.0381 0.105797,-0.0125 0.04369,-0.059 -0.04425,-0.0185 -0.125511,0.0379 -0.145689,-0.0297 0.06232,-0.0787 0.04133,-0.0343 0.116572,0 3.8e-4,-0.055 -0.01139,-0.0625 -0.02913,-0.0294 -0.01307,-0.1445 0.04587,-0.14343 0.07284,-0.20673 0.02788,0.21674 0.179823,-0.13878 0.232909,-0.0594 -0.0032,0.0422 -0.0239,0.05 -0.02913,0.0887 0.07723,0.068 0.09108,0.0415 0.189321,0 0.0013,-0.0515 -0.0032,-0.092 -0.01463,-0.11838 -0.05863,-0.0204 -0.03566,0.12482 -0.08729,0.11838 0.01363,-0.0708 0.05851,-0.0784 0.04369,-0.20675 z m 0.276545,0.059 c 0.0384,0.009 0.04787,-0.0408 0.04382,-0.11803 -0.01463,0 -0.02913,0 -0.04382,0 0.0013,0.0805 -0.02421,0.0594 0,0.11803 z m 2.766998,-0.29543 c -0.03018,0.0175 -0.0957,-0.0368 -0.101977,0.0297 0.03187,0.0154 0.09419,0.0712 0.101977,-0.0297 z m -0.567987,0 c 0.06934,-0.0381 0.164119,0.0711 0.174874,-0.0297 -0.04774,0.0128 -0.198489,-0.0297 -0.174874,0.0297 z m -0.567838,0 c 0.03305,-0.0218 0.113603,0.0528 0.101883,-0.059 -0.04339,0.0662 -0.08914,-0.0429 -0.101883,0.059 z m -0.990342,0 c 0.181267,-0.0394 0.04817,-0.10158 -0.0582,-0.0297 0.02533,-0.002 0.04518,0.006 0.0582,0.0297 z m -1.062985,-0.0297 c -0.01662,0.004 -0.123712,-0.0511 -0.102108,0.0594 0.07974,-0.0533 0.1704,0.0253 0.276765,-0.0594 -0.06212,-0.0307 -0.113592,-0.0125 -0.174657,0 z m 0.728049,0.0297 c 0.04201,-0.0669 0.126668,0.0633 0.174869,-0.0297 -0.0427,0.007 -0.04475,-0.0669 -0.08744,-0.059 0.02272,0.13804 -0.09754,-0.0751 -0.08743,0.0887 z m -0.378648,-0.0297 c 0.04283,0.0475 0.11821,0.008 0.145596,0 -0.02738,-0.007 0.0083,-0.0487 -0.01444,-0.059 -0.04039,0.0859 -0.10176,-0.005 -0.131144,0.059 z m 2.140745,0.0297 c 0.0062,-0.0503 0.0188,0.006 0.04369,0 -0.0013,-0.0519 0.0032,-0.0919 0.01469,-0.11839 -0.01936,0.0229 -0.09797,0.0733 -0.05839,0.11839 z m 2.737761,-0.17741 c 0.0093,-0.0597 0.0682,-0.0193 0.07296,-0.0887 -0.02571,0.0172 -0.08565,-0.0359 -0.08742,0.0297 0.02732,0.007 -0.0083,0.0482 0.01444,0.059 z m -3.305724,-0.059 c -0.01756,-0.006 -0.009,-0.033 0,-0.059 -0.04444,0.0211 -0.05303,-0.0304 -0.08744,-0.0297 -3.8e-4,0.0722 0.09066,0.10837 0.08744,0.0887 z m 3.451476,-0.0887 c -0.04743,0.034 -0.08953,-0.0901 -0.116672,0 0.02751,0.006 0.09658,0.0762 0.116672,0 z m -2.796076,0.059 c 0.01767,0.003 0.03442,0.009 0.02913,0.0594 -0.01724,0.004 -0.04133,-0.005 -0.04381,0.0294 0.06251,-6.1e-4 0.10726,-0.0387 0.145683,-0.0887 -0.03304,0.008 -0.05477,-0.007 -0.05825,-0.059 0.01363,0.0178 0.05378,0.0686 0.04381,-0.0294 -0.05048,0.006 -0.07767,0.0594 -0.116572,0.0883 z m 2.213586,-0.059 c 0.04811,-0.0101 0.08953,-0.005 0.101865,0.059 0.03964,-0.10193 -0.0749,-0.15308 -0.101865,-0.059 z m 3.232864,-0.65026 c -0.02558,0.008 -0.07262,-0.0833 -0.08724,0 0.02446,0.0529 0.06539,0.0826 0.08724,0 z m -7.689095,-0.0887 c 0.02545,-0.0172 0.08558,0.0358 0.08722,-0.0297 -0.01114,-0.006 -0.02869,-6e-4 -0.02907,-0.0294 0.01133,-0.006 0.02876,-5.9e-4 0.02907,-0.0297 -0.0371,0.0133 -0.0669,0.0415 -0.08722,0.0887 z m -0.189327,0.059 c 0.0361,0.005 0.06044,-0.0154 0.07285,-0.059 -0.02017,-6e-4 -0.03206,0.0136 -0.04382,0.0294 -1.43e-4,-0.0862 -0.07195,-0.17812 -0.08742,-0.059 0.03809,-0.008 0.07296,-0.0101 0.05839,0.0887 z m 4.761877,-0.29542 c 0.03349,0.0594 0.07738,-0.0397 0.102047,-0.0887 -0.05042,-0.004 -0.06856,0.0577 -0.102047,0.0887 z m -3.975527,0.0887 c -0.0211,0.0161 -0.0753,-0.0346 -0.0729,0.0294 0.01711,0.005 0.04146,-0.005 0.04388,0.0297 -0.02719,0.004 -0.04873,0.0197 -0.05838,0.059 0.05496,0.0128 0.0663,-0.0622 0.08744,-0.11802 z m 5.868755,0.94567 c -0.0188,-0.0283 -0.138351,-0.059 -0.08724,0.0297 0.0127,-0.0801 0.06451,0.0246 0.02907,0.059 0.04675,0.0257 0.04544,-0.0454 0.05813,-0.0887 z m -3.130819,-1.03438 c 0.01924,0.05 0.09711,-0.0494 0.130952,0.0294 -0.0032,-0.17741 -0.100988,-0.10908 -0.130952,-0.0294 z m -1.470954,-0.059 c 0.02459,0.0194 0.0091,0.0676 -0.01463,0.059 0.04718,0.0762 0.205833,-0.11553 0.189321,0.059 0.02427,-0.0862 0.09376,-0.14379 0.145607,-0.059 0.01382,-0.0497 0.05932,-0.0923 0.02925,0 0.031,0.0136 0.0277,-0.0422 0.02907,-0.0887 0.05546,0.0602 0.09639,-0.0239 0.174663,0 -0.0044,0.04 -0.03647,0.0243 -0.05807,0.0297 0.08206,0.0365 0.221949,-0.0637 0.363985,-0.059 0.07285,0.002 0.265741,0.03 0.233045,0.0883 0.08157,-0.14809 0.333423,-0.092 0.495214,-0.11805 0.02147,0.0128 -0.0056,0.0375 0,0.0887 0.102923,-0.0747 0.210439,-0.092 0.291155,-0.059 -0.0083,0.0669 -0.02272,-0.0361 -0.04369,0.0294 0.0155,0.0672 0.09164,0.011 0.13095,0.0297 -0.0044,-0.04 -0.03635,-0.0247 -0.05814,-0.0297 -0.01201,-0.0315 0.215021,-0.0873 0.174658,0.059 0.061,0.0128 0.08636,-0.18455 0.13113,-0.0294 0.03013,-0.1209 0.263657,0.005 0.335036,0 -0.06644,-0.11124 0.29398,-0.11589 0.320234,0.0294 0.02172,-0.0128 -0.0056,-0.0376 0,-0.0883 0.04245,-0.007 0.05023,0.0555 0.0728,0.0883 0.08495,-0.17776 0.310188,0.007 0.538957,-0.0294 -0.0064,0.0262 -0.0127,0.0529 -0.02907,0.059 0.01326,0.0329 0.02694,0.009 0.07278,0.0294 -0.0095,-0.03 -0.03349,-0.0304 -0.02907,-0.0883 0.06433,0.0236 0.04985,0.0365 0.08724,0.0883 0.02166,-0.0125 -0.0056,-0.0375 0,-0.0883 0.04457,-0.0218 0.04283,0.0512 0.08741,0.0294 -0.0077,0.0239 -0.01513,0.0482 -0.01463,0.0887 0.163553,-0.2375 0.637654,0.0651 0.801039,-0.0297 0.089,0.0833 0.243391,0.0208 0.45154,0.0594 0.05147,0.18027 0.221008,-0.0415 0.29116,0.11802 -0.0013,-0.10945 0.166895,0.003 0.276703,0 -0.0024,0.0243 -0.01463,0.0297 -0.01463,0.059 0.01662,0.0508 0.06256,-0.088 0.116492,-0.059 -0.0062,0.0619 0.01002,0.0784 0.01463,0.11839 0.01954,-0.006 0.02714,-0.12268 0.02907,0 0.04743,-0.14343 0.211143,-0.0712 0.291335,0.0294 0.201103,-0.0715 0.333809,0.0758 0.509705,0.11839 -0.0024,0.024 -0.01463,0.0294 -0.01463,0.059 0.02484,0.011 0.0277,-0.0229 0.02907,-0.059 0.317066,0.024 0.741817,0.23427 1.03421,0.3845 0.156327,0.0798 0.270533,0.0973 0.349314,0.35444 0.01867,0.31797 -0.06627,0.53114 -0.116493,0.67957 -0.338395,-0.15058 -0.757326,-0.15881 -1.121273,-0.29542 -0.282348,-0.10623 -0.489967,-0.21533 -0.757327,-0.17741 -0.03523,0.005 -0.05235,-0.0165 -0.07279,-0.0883 -0.09394,0.0154 -0.174483,0.0103 -0.23299,-0.0594 -0.01581,0.007 -0.0099,0.0587 -0.02907,0.0594 -0.374702,-0.13377 -0.935331,-0.13912 -1.529106,-0.29579 0.02571,0.0955 -0.0772,-0.0136 -0.05832,0.0594 -0.214666,-0.0676 -0.479207,-0.12769 -0.713435,-0.0887 0.107156,0.0558 0.155088,0.007 0.247449,0.059 0.01245,0.12126 -0.06521,-0.0354 -0.08724,0.059 0.07349,0.0343 0.216781,0.0625 0.262074,0.059 -0.02203,-0.0435 -0.06398,-0.0475 -0.102044,-0.059 0.04437,-0.0232 0.135176,-0.0572 0.145577,0.059 0.08813,0.007 0.234938,-0.12304 0.276708,0.0887 0.05707,-0.0294 0.08477,0.0651 0.116678,0 -0.0024,-0.0346 -0.02676,-0.025 -0.04369,-0.0294 0.02876,-0.0852 0.09076,0.0101 0.131119,0 0.03809,0.0583 -0.05745,0.0143 -0.07296,0 0.150339,0.196 0.244455,-0.0291 0.3932,0.059 -0.0032,0.0321 -0.02895,0.0197 -0.02907,0.059 0.0305,0.0104 0.09888,0.10837 0.130955,-0.0294 0.269122,0.20995 0.448889,0.0443 0.786401,0.20672 -3.79e-4,0.0286 -0.01767,0.0225 -0.02907,0.0294 0.0037,0.0697 0.06451,0.0182 0.05832,-0.0294 0.02596,0.0218 0.0019,0.0536 0,0.0883 0.06892,-0.14414 0.119323,0.0101 0.203741,-0.059 0.04232,0.0169 -0.02235,0.0462 -0.01444,0.0887 0.06081,-0.0665 0.117207,0.006 0.189283,0 -0.01096,0.0558 -0.04351,0.0208 -0.01444,0.0887 0.07491,-0.16095 0.285347,0.0619 0.407659,0.0887 0.01955,0.069 -0.0019,0.22069 0.05813,0.20673 -0.02552,0.10766 -0.04033,0.27898 0,0.35446 -0.02396,0.57155 -0.355488,0.32153 -0.50953,0.26645 -0.01463,-0.005 -0.01232,0.0597 -0.01463,0.059 -0.12284,-0.0329 -0.268243,-0.14807 -0.378573,-0.059 0.03336,-0.0897 -0.09429,-0.10301 -0.131131,-0.059 -0.157378,-0.0147 -0.590065,-0.15881 -0.742695,-0.11839 0.01002,-0.0794 -0.03013,-0.0572 -0.04369,-0.0891 -0.117899,0.15844 -0.179057,-0.0104 -0.39302,0.0297 -0.0044,-0.0475 0.01357,-0.0508 0.01444,-0.0887 -0.433744,0.19277 -0.772662,-0.10802 -1.13608,0 0.03822,-0.11052 -0.133241,0.0272 -0.145571,-0.0887 -0.02029,0.0848 -0.172018,-0.014 -0.262083,0.0594 -0.02098,-0.007 -0.005,-0.0883 -0.02907,-0.0887 -0.04301,0.14234 -0.188755,-0.0332 -0.247798,0.0887 0.02272,-0.10516 -0.04936,-0.0175 -0.04351,-0.0887 -0.03069,0.0904 -0.112266,0.0648 -0.145572,0 -0.0092,0.11659 -0.02626,0.0633 -0.102051,0.059 0.07861,0.004 -0.03112,-0.0801 -0.07278,0 0.0032,-0.024 0.01463,-0.0294 0.01463,-0.059 -0.01307,0.0128 -0.02589,0.0262 -0.02907,0.059 -0.0092,-0.0707 -0.009,-0.045 -0.07278,-0.0297 0.0032,-0.0236 0.01444,-0.0294 0.01444,-0.059 -0.164262,0.0741 -0.27547,0.0443 -0.495183,0 -0.01382,0.0222 -0.293974,0.0583 -0.334936,0.059 -0.05658,6e-4 -0.16537,-0.0697 -0.203792,-0.0883 -0.04574,-0.0218 -0.09624,0.0822 -0.145615,0.0883 -0.03336,0.005 -0.01986,-0.0583 -0.04369,-0.059 -0.03268,-5.9e-4 -0.04151,0.059 -0.04369,0.059 -0.07835,0.008 -0.176954,-0.0822 -0.262162,-0.0883 -0.0468,-0.003 -0.161455,0.13734 -0.218388,0.0294 3.3e-4,0.0291 0.0178,0.0232 0.02907,0.0297 -0.120612,-0.0475 -0.301891,0.0722 -0.436826,0 3.8e-4,0.0286 0.01774,0.0229 0.02913,0.0294 -0.103059,-0.10837 -0.248325,0.11409 -0.393324,-0.11803 -0.03753,0.007 0.02017,0.0508 0,0.11803 -0.177264,-0.0215 -0.326122,0.0833 -0.451203,-0.0294 -0.114842,0.1731 -0.277798,-0.0332 -0.364195,0.14771 -0.207228,-0.0919 -0.427271,-0.0544 -0.684411,0.059 -0.21583,-0.0637 -0.46402,-0.004 -0.699113,0.0594 -0.0211,-0.0133 0.0013,-0.0262 0,-0.0594 -0.08573,0.14271 -0.383279,0.005 -0.466091,0.0891 -0.005,0.005 0.02259,0.0414 0.02925,0.0297 -0.125082,0.0321 -0.208734,6e-4 -0.363984,0.0294 0.05334,-0.0672 -0.123021,0.0378 -0.102027,0.059 -0.0044,0.0625 -0.04519,-0.0426 -0.05826,-0.059 -0.329781,0.16095 -0.434342,0.0394 -0.815398,0.20673 -0.01481,-0.0194 -0.01525,-0.0679 -0.04394,-0.059 -0.01787,0.0615 0.01089,0.0422 -0.05813,0.0297 3.3e-4,0.0286 0.01786,0.0225 0.02907,0.0294 -0.133696,-0.0651 -0.325431,0.11231 -0.495003,0.0297 -0.03299,0.0164 0.01755,0.0461 -0.01463,0.0887 -0.08859,-0.0683 -0.178783,-0.0407 -0.305819,0.0297 0.0032,-0.0244 0.01463,-0.0297 0.01463,-0.0593 -0.03361,0 -0.088,0.12412 -0.05839,0 -0.209076,0.16597 -0.288597,0.0744 -0.480544,0.17741 -0.0211,-0.0131 0.0013,-0.0257 0,-0.059 -0.241922,0.12268 -0.589455,0.13484 -0.917288,0.20673 0.0024,-0.0236 0.01444,-0.0294 0.01444,-0.059 -0.01799,0.0128 -0.02993,0.0375 -0.02913,0.0883 -0.316898,0.003 -0.743185,0.34051 -0.87385,-0.17704 -0.01083,-0.0429 0.03772,-0.14987 -0.04369,-0.14773 -0.0095,-0.10622 0.04699,-0.22926 -0.01444,-0.2661 0.005,-0.098 0.0895,-0.0351 0.07277,-0.1774 0.126669,0.0304 0.301182,-0.0711 0.42223,-0.14771 -0.09212,-0.0494 -0.124956,-0.21926 -0.189395,-0.32514 -0.33323,0.009 -0.750556,0.36233 -1.004739,0 -0.0094,-0.14699 -0.0071,-0.12553 0.01462,-0.23641 0.0069,-0.0934 -0.0262,-0.10444 -0.01462,-0.20675 0.301892,-0.20315 0.642255,-0.30651 0.975679,-0.38412 0.389321,-0.0909 0.784837,-0.22068 1.165084,-0.20674 0.01351,-0.0319 0.05365,-0.0101 0.04369,-0.0887 0.259205,0 0.497063,-0.10551 0.80102,-0.14808 0.160491,-0.0225 0.496584,-0.1613 0.495209,-0.0297 0.0389,-0.0772 0.102101,-0.12982 0.145614,-0.0297 0.252665,-0.18706 0.646114,-0.16095 0.961083,-0.20672 -0.01326,0.0515 -0.0511,0.0765 -0.07285,0.0297 0.07697,0.11266 0.224644,-0.2239 0.320347,-0.0297 0.03865,-0.0278 0.07985,-0.14843 0.131143,-0.059 -3.3e-4,0.0286 -0.01786,0.0229 -0.02907,0.0294 0.02203,0.0894 0.06382,-0.0243 0.101815,0 -0.104441,-0.0278 -0.0163,-0.0508 0.05825,-0.0883 -0.0062,0.0618 0.01015,0.0784 0.01463,0.11803 0.04245,-0.19171 0.310705,-0.0955 0.495214,-0.20673 0.01351,0.0315 0.05371,0.009 0.04369,0.0887 0.04138,0.0125 0.130664,-0.0275 0.101902,-0.0594 0.08109,-0.0164 0.19056,-0.0991 0.291279,-0.059 -0.0032,-6e-4 -0.01419,0.059 -0.01444,0.059 0.07346,-0.009 0.175821,-0.19923 0.276546,-0.0294 0.01052,0.0805 -0.0687,-0.0211 -0.0582,0.059 0.04718,0.0494 0.112776,-0.0837 0.0582,-0.11803 0.17658,-0.0215 0.39724,-0.11552 0.553516,0 -0.0037,-0.10658 0.265263,-0.1606 0.29123,-0.0297 0.02147,-0.0128 -0.0056,-0.0375 0,-0.0887 0.06278,-0.005 0.05969,0.084 0.145596,0.0887 -0.0095,-0.03 -0.03355,-0.0307 -0.02907,-0.0887 0.09996,0.0378 0.163852,-0.0268 0.262089,-0.0297 -0.03025,0.0475 -0.07525,0.0644 -0.08743,0.14809 0.0313,-0.0644 0.09687,-0.0597 0.131018,-0.1184 -0.0389,0.0983 0.0771,0.048 0.102034,-0.0297 0.01581,0.007 0.0097,0.059 0.029,0.0594 0.02005,-0.0297 -0.0062,-0.049 0.02913,-0.0887 0.169349,0.0433 0.495545,-0.0351 0.655394,-0.0297 0.0211,0.0133 -0.0013,0.0262 0,0.059 0.02427,0 0.04855,0 0.07285,0 0.0024,-0.0787 0.04662,-0.0429 0.131075,-0.059 -0.0024,0.0346 -0.02664,0.025 -0.04388,0.0297 0.04973,0.13198 0.135968,-0.0707 0.174862,-0.059" />
      <path
         inkscape:connector-curvature="0"
         id="path122-1-2"
         style="fill:#ffffff;fill-opacity:1;fill-rule:evenodd;stroke:none;stroke-width:0.0362927"
         d="m 41.206006,278.78036 c -0.02551,-0.10402 -0.167962,-0.20216 -0.196824,-0.16433 0.05998,0.0652 0.128586,0.11504 0.196824,0.16433 z M 40.72507,278.2874 c -0.07274,-0.0682 -0.145468,-0.13691 -0.218495,-0.20614 0.0097,0.16132 0.167735,0.25842 0.218495,0.20614 z m 12.611533,-3.45621 c -0.0075,-0.17029 0.03824,-0.22606 -0.02175,-0.32914 0,0.12252 -0.04124,0.27437 0.02175,0.32914 z m 0.98376,-1.81001 c -0.0097,0.20716 -0.03074,-0.0847 -0.06524,-0.0827 -0.03824,0.36748 0.104972,0.58707 0.04349,0.86442 0.06148,-0.0553 0.05474,0.2181 0.08729,0.0817 -0.01876,-0.35702 -0.07348,-0.61645 -0.06524,-0.86343 z m 0,-0.16432 c -0.009,-0.14889 -0.02923,-0.27536 -0.06524,-0.37047 0,0.16532 0.0075,0.31669 0.06524,0.37047 z m -1.464622,-0.2888 c 0.01948,-0.11998 0.08038,-0.0113 0.0875,-0.0816 -0.07348,-0.0404 -0.109243,-0.15187 -0.153106,-0.24749 0.05097,0.18674 0.08832,0.35802 0.06599,0.32914 z m 1.399018,-0.12351 c -0.01577,-0.14241 -0.01652,-0.2883 -0.06599,-0.45262 -0.02474,0.18225 -0.0098,0.3376 0.06599,0.45262 z m -0.153414,-0.53429 c 0.0315,0.01 0.03673,0.0671 0.06598,0.0817 0,-0.10855 0.01202,-0.242 -0.04424,-0.24698 0.0075,0.0782 -0.02475,0.0916 -0.02176,0.16533 z m -1.486073,-0.45311 c 0.009,0.0711 -0.03226,0.10601 0,0.12348 0,-0.14587 0.07198,0.0877 0.06524,-0.0407 -0.07596,-0.0503 -0.143897,-0.33164 -0.218501,-0.24699 0.06823,0.0186 0.100775,0.242 0.152888,0.16432 z M 39.65402,271.005 c 0.08203,-0.28581 0.304204,-0.52533 0.32828,-0.78178 -0.09943,0.25247 -0.311326,0.51041 -0.32828,0.78178 z m 11.999684,-0.57661 c -0.07048,-0.10007 -0.159492,-0.16531 -0.240699,-0.24598 0.033,0.1449 0.202383,0.24798 0.240699,0.24598 z m -11.606017,-0.20517 c 0.01573,-0.14886 0.126936,-0.11799 0.130914,-0.2883 -0.05624,0.0469 -0.174864,0.18873 -0.130914,0.2883 z m 0.174775,-0.2883 c 0.09897,-0.22555 0.263483,-0.32664 0.349717,-0.57661 -0.122444,0.15487 -0.338321,0.35006 -0.349717,0.57661 z m 12.217954,-1.15222 c -0.0075,-0.12745 -0.07753,-0.12844 -0.131219,-0.16432 -0.0075,0.15187 0.07993,0.12449 0.131219,0.16432 z m 0.152881,-0.32863 c 0.063,-0.16931 -0.09125,-0.22259 -0.152881,-0.28782 0.06748,0.2186 0.122442,0.12548 0.152881,0.28782 z m -0.130916,-0.4113 c -0.05773,-0.0567 -0.08278,-0.17329 -0.153184,-0.20615 0.0075,0.12999 0.114271,0.27586 0.153184,0.20615 z m -10.709912,0 c 0.09973,-0.0602 0.298889,-0.1499 0.284109,-0.28782 -0.07648,0.12998 -0.210026,0.15236 -0.284109,0.28782 z m 2.447867,-1.15274 c -0.09418,-0.0195 -0.02773,0.11109 -0.06523,0.1235 -0.039,-0.13395 -0.171412,-0.007 -0.2188,0.0827 0.08728,0.0127 0.161664,0.002 0.196826,-0.0827 0,0.0816 -0.05998,0.0528 -0.04348,0.16432 0.08623,-0.0698 0.200502,-0.0881 0.218497,-0.2878 -0.05399,-0.007 -0.08047,0.27038 -0.08758,0 z m -0.02175,-0.0817 c 0.02698,0.0733 0.202076,-0.0612 0.152893,-0.12349 -0.02175,0.0965 -0.126202,0.0368 -0.152893,0.12349 z m -2.863412,1.68655 c -0.132043,0.0817 -0.305777,0.27635 -0.371687,0.37047 -0.24624,0.35103 0.511304,-0.27837 0,0.0817 0.118773,-0.0837 0.515582,-0.55621 0.568442,-0.73993 -0.02999,0.13987 -0.127473,0.2156 -0.196755,0.16431 0,0.0408 0,0.0827 0,0.12351 z m -1.180073,9.21688 c -0.03674,-0.0439 -0.121394,-0.20716 -0.152879,-0.1235 0.04949,0.0185 0.11007,0.22655 0.152879,0.1235 z m 3.387466,-10.90343 c -0.03748,0.002 -0.05623,-0.0319 -0.06523,-0.0827 0.0926,0.01 0.140441,-0.0652 0.196829,-0.12351 -0.223001,0.0713 -0.377462,0.15586 -0.524587,0.28781 -0.02849,0 -0.01948,-0.0717 -0.04348,-0.0817 -1.089566,0.56716 -2.008244,1.35392 -2.841221,2.46828 -0.325052,0.43472 -0.699884,0.92619 -0.940055,1.4814 -0.161356,0.37344 -0.308472,1.03171 -0.480632,1.31654 0.100482,0.19768 -0.235216,0.45412 -0.109248,0.74044 -0.06148,0.0661 -0.11007,0.31867 -0.06598,0.45313 -0.105503,0.22855 -0.106028,0.83155 -0.0876,1.23388 0.140007,2.98965 1.94429,4.02188 3.256778,4.85494 0.03226,-0.0225 0.113227,0.0478 0.109553,-0.0418 -0.215351,-0.0144 -0.194657,-0.30823 -0.327752,-0.16433 0.0075,-0.0931 -0.0075,-0.15436 -0.04423,-0.16432 -0.0082,0.0711 0.03225,0.10599 0,0.1235 -0.07199,-0.031 -0.109775,-0.0971 -0.108952,-0.16432 -0.02023,0.0991 -0.123493,0.0175 -0.131446,-0.0408 0.05398,-0.0544 0.09073,0.12054 0.109473,0 -0.136765,-0.0166 0.036,-0.12054 -0.06524,-0.16533 -0.06599,0.0574 0.0075,0.11701 -0.06599,0.16533 -0.593555,-0.43374 -1.234732,-0.99491 -1.595844,-1.72837 0.07723,0.10263 0.192028,0.35055 0.262445,0.32915 -0.206581,-0.2694 -0.361647,-0.63637 -0.54625,-0.94658 -0.03824,0.14589 0.07274,0.21211 0.02175,0.24696 -0.254178,-0.481 -0.424242,-1.12135 -0.524492,-1.89217 0.02773,0.008 0.04499,0.0636 0.04349,-0.0418 -0.06148,-0.0112 -0.08675,-0.54874 -0.08727,-0.78127 0,-0.98591 0.287478,-2.20288 0.546467,-2.83875 -8.3e-4,6.1e-4 0.235444,-0.32118 0.196522,-0.45314 0.09208,-0.0592 0.160312,-0.16431 0.174861,-0.37046 0.613952,-1.04667 1.40486,-2.05699 2.273007,-2.7561 0.01499,0.0817 0.0992,0.12999 0.109556,0 -0.04725,-0.0264 -0.06899,0.11644 -0.06524,-0.0407 0.06899,-0.19469 0.231988,0.004 0.218495,-0.12392 -0.02473,-0.004 -0.03448,0.0596 -0.04349,0 0.08067,-0.12352 0.253892,-0.28881 0.349637,-0.24698 -0.117948,0.0671 -0.208679,0.16083 -0.262366,0.24698 0.258989,0.0283 0.260041,-0.43073 0.437225,-0.37046 -0.05098,0.014 -0.09417,0.0418 -0.109252,0.1235 0.308479,-0.13197 0.491737,-0.4357 0.764741,-0.41128 -0.02546,-0.0206 -0.04948,-0.0439 -0.06523,-0.0827 0.07348,-0.0652 0.09336,0.17526 0.130918,0.0418 z m 6.207469,-0.0827 c 0.04724,-0.11249 0.151313,0.014 0.196829,0.0407 -0.0097,-0.21363 -0.216098,-0.0593 -0.262438,-0.20516 0.01574,0.12944 0.07199,0.0796 0.06599,0.16433 z m -4.917927,-0.0827 c 0.04574,0.0127 -0.03225,0.11206 0.04424,0.12349 0.02325,-0.24001 0.137518,-0.0319 0.196529,-0.20516 -0.05473,-0.0787 -0.0857,0.0338 -0.152887,-0.0418 0.009,0.11405 -0.0815,0.0389 -0.08758,0.12351 z m -0.02175,0 c -0.05323,-0.13297 -0.105803,-0.0806 -0.174853,-0.12352 0,0.0284 0,0.0553 0,0.0827 -0.01349,0.003 -0.02626,0.005 -0.02175,0.0408 0.039,0.0112 0.108956,-0.11546 0.131221,0 -0.160832,0.11758 -0.289129,0.0469 -0.371387,0.2888 0.102655,-0.0214 0.284635,-0.0338 0.218203,-0.1653 0.08097,-0.0265 0.167211,-0.0419 0.2188,-0.12353 z m 6.688102,0.53477 c -0.329098,-0.23054 -0.624828,-0.52383 -0.983243,-0.6991 0.2886,0.27935 0.696203,0.55422 0.983243,0.6991 z m -5.551528,-0.49296 c -0.04123,0.0722 0.02999,0.12748 -0.04348,0.16433 -0.05023,-0.12154 -0.134887,-0.11645 -0.15289,-0.20614 -0.0075,0.0324 -0.01801,0.0488 -0.04349,0.0418 -0.03376,0.1459 0.07423,0.0244 0.06599,0.1235 -0.04874,0.0548 -0.213996,0.0127 -0.109549,0.12351 -0.183326,-0.24399 -0.333519,0.26539 -0.502608,0 -0.314472,0.40482 -0.653312,0.28332 -1.005129,0.61693 0,-0.0459 0.0315,-0.0642 0,-0.0827 -0.379332,0.28183 -0.576916,0.46459 -0.961791,0.65828 0.03524,0.0728 -0.09208,0.10614 -0.066,0 -0.01652,0.0777 -0.06524,0.0289 -0.02175,0.1235 -0.107375,0.0175 -0.161364,0.13494 -0.262138,0.16432 0,-0.0766 0.07198,-0.0284 0.06524,-0.1225 -0.211073,0.32963 -0.568442,0.53677 -0.765275,0.65726 0.02626,0.007 0.06224,-0.007 0.06525,0.0418 -0.242866,0.23552 -0.616358,0.4815 -0.808375,0.78176 -0.01424,-0.0658 -0.02399,-0.0707 -0.04425,-0.0418 -0.432195,0.64484 -1.113858,1.4754 -1.551902,2.51014 -0.172235,0.40681 -0.372733,1.02426 -0.437219,1.52219 -0.204778,1.58345 0.566335,2.67842 1.049296,3.25006 0.813403,0.96501 2.129933,1.55907 2.950471,2.01617 0.0075,-0.031 8.29e-4,-0.0806 0.02175,-0.0817 0.07618,0.24698 0.328278,-0.0127 0.480862,0.24698 0.22854,0.0363 0.429349,-0.0195 0.699433,0.20514 0.05023,-0.22557 0.234317,0.10163 0.28411,0 -0.01202,0 -0.02473,-0.0329 0,-0.0408 0.420051,0.14391 0.880589,0.0577 1.333404,0.0408 0.388341,-0.014 0.790161,-6.2e-4 1.158322,-0.0827 0.300524,-0.0658 0.588606,-0.28781 0.852548,-0.28781 0.102645,6.2e-4 0.08443,0.0508 0.174858,0 -0.01202,0.007 0.09815,-0.22458 0.130994,-0.0408 -0.04498,-0.0234 -0.163759,0.0127 -0.08736,0.0827 0,-0.0891 0.07753,-0.0183 0.109248,-0.0418 0.039,-0.24202 0.242342,-0.1738 0.371386,-0.247 0.0097,0.11405 -0.0812,0.0389 -0.08728,0.12449 0.08549,0.01 0.127553,-0.0623 0.152888,-0.16529 0.42882,-0.0503 0.987436,-0.62841 1.442737,-0.49297 0.03372,-0.1469 -0.07424,-0.0254 -0.06524,-0.12352 0.607131,-0.22008 1.479999,-0.97744 1.923067,-1.31706 0.110823,-0.0847 0.0971,0.003 0.109545,0.0408 0.03376,-0.21461 0.103406,-0.19022 0.174861,-0.24699 0.08091,-0.0632 0.159714,-0.24299 0.24017,-0.36948 0.290403,-0.45809 0.613129,-1.34891 0.43722,-2.13962 0.08465,-0.1125 -0.039,-0.16434 0.04423,-0.24698 -0.151313,-0.32765 -0.142314,-0.39987 -0.218493,-0.74093 -0.178836,-0.22557 -0.369286,-0.78577 -0.568437,-1.11093 0.07348,0.0313 0.242788,0.18375 0.262136,0 -0.02551,0.0353 -0.05849,0.0548 -0.109245,0.0408 -0.02551,-0.0602 -0.02551,-0.10303 0,-0.16433 -0.07199,0.0691 -0.09629,-0.0214 -0.152891,-0.0817 -0.02924,0.10204 0.08623,0.12845 0.02175,0.16431 -0.03449,-0.10006 -0.131217,0.0643 -0.06599,-0.1235 -0.134671,0.0398 -0.259214,-0.23602 -0.34971,-0.4113 0.02474,-0.005 0.03372,0.0593 0.04423,0 -0.10955,-0.20614 -0.291233,-0.27535 -0.371691,-0.53479 0.120122,0.23603 0.347617,0.37247 0.502606,0.57563 0.07498,0.0981 0.151091,0.39585 0.24047,0.24697 -0.154994,-0.11448 -0.281485,-0.37843 -0.349426,-0.53478 -0.172451,-0.002 -0.299699,-0.47353 -0.502599,-0.53479 0.02627,0.005 0.05174,0.0127 0.04349,0.0827 -0.02923,-0.10105 -0.06599,0.0737 -0.08736,-0.0418 0.07513,-0.0359 -0.02551,-0.0368 0.04423,-0.16433 -0.314248,-0.004 -0.217441,-0.29377 -0.393579,-0.45213 0.0075,0.0408 0.09575,0.11052 0.04349,0.12352 -0.05999,-0.0926 -0.187828,-0.0588 -0.218496,-0.20616 0.07828,0.0279 0.12455,0.0757 0.130915,-0.0827 0.09921,0.0912 0.166388,0.23402 0.196832,0.0413 0.05323,0.0548 -0.02399,0.15288 0.02175,0.16483 0.02924,-0.20466 0.123791,0.12349 0.175077,0 0,0.0524 -0.02849,0.0573 -0.02175,0.12349 0.112923,0.11153 0.224795,0.0902 0.262357,0.28783 0.04124,-0.01 -0.01274,-0.0681 0.02175,-0.0827 0.116892,0.18971 0.199682,0.24598 0.240392,0.41229 0.05624,-0.17428 0.153415,0.17477 0.218492,0.24597 0.05175,-0.15385 0.181458,0.008 0.218803,0.12351 0.03675,-0.23353 -0.125969,-0.0926 -0.109547,-0.28781 0.18355,0.0747 0.205003,0.47951 0.327746,0.45313 0.186481,0.55519 0.623254,1.24186 0.656018,1.97434 0.231169,0.32963 0.124839,1.17265 0.109244,1.60486 0,0.0912 0.04124,0.241 0.04349,0.20614 -0.0075,0.0857 -0.12116,0.31668 -0.08727,0.16431 -0.108206,0.488 -0.116376,0.97249 -0.218493,1.02876 -0.105052,0.363 -0.312156,0.87338 -0.568444,0.9874 0.136767,0.0593 -0.229069,0.38791 -0.152889,0.20516 -0.127766,0.2664 -0.205534,0.14391 -0.437296,0.41131 0.06298,0.0583 0.111121,-0.11208 0.131206,0 -0.137279,0.0688 -0.220361,0.22456 -0.3716,0.1653 -0.009,0.0698 0.03225,0.10502 0,0.12351 -0.03225,-0.008 -0.08067,0.0144 -0.08736,-0.0418 0.128072,-0.0245 -0.103701,0.0185 -0.130921,0.0418 -0.09815,0.0817 -0.201016,0.37546 -0.328256,0.24597 -0.03901,0.14491 -0.06824,0.17877 -0.152897,0.0827 -0.110823,0.19271 -0.284629,0.18772 -0.458968,0.4113 -0.06749,0.0314 -0.04199,-0.1125 -0.109253,-0.0817 -0.101523,0.1713 -0.134364,0.21712 -0.284026,0.2878 0,-0.0707 0.123794,-0.16234 0.02176,-0.16532 -0.02023,0.12648 -0.111875,0.11957 -0.131444,0.24698 -0.267688,-0.0319 -0.537999,0.21311 -0.742993,0.24698 0.01499,-0.0817 0.130393,0.0264 0.109245,-0.12351 -0.09313,0.1703 -0.332021,0.0244 -0.262132,0.20615 -0.198185,0.008 -0.347323,0.14989 -0.502913,0.16481 0.03226,-0.007 0.08068,0.0144 0.08729,-0.0408 -0.250744,0.0797 -0.734303,0.2196 -0.983163,0.32866 0,-0.0408 0.01726,-0.0488 0.02175,-0.0817 -0.05323,0.15337 -0.386229,0.0359 -0.306071,0.16432 -0.346271,0.01 -0.682414,0.17477 -0.961493,0.1235 -0.20238,0.23602 -0.822933,0.01 -1.24591,0.16432 1.8942,0.35106 3.496713,0.1932 5.158172,-0.57661 0.937197,-0.43371 2.380151,-1.42709 2.92872,-2.71576 0.14494,-0.3391 0.375132,-0.70309 0.480936,-1.1104 0.130617,-0.50294 0.184907,-1.18959 0.240392,-1.76919 -0.05249,-0.69513 -0.121097,-1.35338 -0.262365,-2.01617 -0.108494,-0.50939 -0.33359,-1.01628 -0.349413,-1.2757 -0.294681,-0.51438 -0.592061,-1.02526 -0.874519,-1.56304 -0.563708,-0.59204 -1.117904,-1.21349 -1.55197,-1.64519 -0.048,0.0593 0.02773,0.10006 -0.02175,0.1225 -0.06824,-0.20165 -0.147861,-0.23254 -0.240466,-0.16432 -0.04425,-0.22656 -0.225623,-0.20266 -0.284102,-0.20565 0.0075,-0.0248 0.05472,-0.15834 0,-0.16431 -0.03376,0.0857 -0.129869,0.0149 -0.04351,0.12294 -0.06073,-0.0313 -0.146502,-0.0414 -0.06597,-0.12294 -0.04124,-0.01 -0.04798,0.0459 -0.08728,0.0408 0,-0.0418 0.01726,-0.0493 0.02175,-0.0827 -0.04276,-0.0113 -0.04351,0.0556 -0.06599,0.0827 -0.02097,-0.16631 -0.132797,-0.16133 -0.240467,-0.16431 -0.02776,-0.30226 -0.445993,-0.12055 -0.48094,-0.37048 -0.496753,0.0584 -0.867084,-0.32863 -1.39871,-0.37048 0,0 -0.0082,0.0786 -0.02175,0.0827 -0.493904,0.1355 -1.458852,-0.2614 -1.813817,0.16433 -0.110597,-0.22955 -0.462115,0.1673 -0.502899,-0.0408 z m 2.09823,-0.28778 c 0.04798,0.0733 0.155809,0.0359 0.218499,0.0815 8.29e-4,-0.0544 0.03824,-0.0368 0.04423,-0.0815 -0.07567,0.0681 -0.144934,-0.0338 -0.262358,0 z m -0.852321,0 c 0.339364,-0.0245 -0.02923,-0.10306 -0.06599,0.0407 0.03074,0.0174 0.04799,-0.0399 0.06599,-0.0407 z m -3.300408,0.0815 c 0,0.0554 0,0.1101 0,0.16433 0.06148,-0.23701 0.291224,0.014 0.480934,-0.28782 -0.190453,0.1509 -0.311627,0.0553 -0.480934,0.12351 z m 3.649898,-0.20513 c 0.13249,-0.20315 0.325867,0.0847 0.41555,-0.12351 -0.244147,0.0418 -0.480637,-0.16033 -0.634046,0 -0.08414,-0.18075 -0.343648,-0.0701 -0.524584,-0.0418 0.142844,-0.0418 0.248945,0.0876 0.349718,0 0,0.0488 0,0.11645 0.02175,0.12351 0.111049,0.0113 0.309445,-0.10304 0.371384,0.0418 z m -2.250811,0.0408 c -0.04424,0.0378 -0.177778,-0.008 -0.13152,0.12351 0,-0.12251 0.162194,0.0574 0.13152,-0.12351 z m 0.721029,-0.20614 c 0.06224,0.0641 -0.04275,0.19718 -0.066,0.0827 0.07423,-0.0195 0.02325,-0.24997 -0.02175,-0.1235 0,0.0886 -0.346262,0.0747 -0.152887,0.20614 -0.119817,-0.0205 -0.416143,0.19371 -0.393349,0.0408 -0.06374,0.15487 -0.245721,0.0867 -0.284405,0.28781 0.05398,-0.15186 0.207399,0.0127 0.218789,-0.0827 -0.02546,-0.005 -0.06224,0.008 -0.06523,-0.0408 0.144711,-6.2e-4 0.256887,-0.0652 0.371677,-0.12351 -0.04048,0.1992 0.04275,0.11659 0.108956,0.16432 0,-0.1449 0.03974,0.005 0.06598,-0.12251 0,0.20117 0.137295,-0.0164 0.152893,0.0815 0.02023,-0.0717 0,-0.22059 0.06598,-0.20514 0,0.0544 -0.07348,0.15285 -0.02175,0.16431 0.009,-0.0702 0.02849,0.008 0.06525,0 -0.02849,-0.18074 0.129413,0.0733 0.152963,-0.0827 -0.05474,0.007 -0.05323,-0.0916 -0.08736,-0.1235 0.05549,0.0448 0.104228,-0.12448 0.130995,0 -0.03525,-0.0113 -0.05849,0.0552 -0.02175,0.0827 0.04575,-0.13494 0.09261,0.0691 0.13145,0.0827 -0.0075,-0.0817 0.02923,-0.0817 0.04349,-0.12349 -0.05398,0.005 -0.105803,0.007 -0.109244,-0.0827 0.02546,0.0478 0.07723,0.0468 0.131217,0.0407 0,0.0488 0,0.11644 0.0225,0.1235 0.07049,-0.11448 0.02773,-0.0711 0.130922,-0.20515 -0.04949,-0.0701 -0.119296,-0.0378 -0.04349,0.0408 -0.08653,0.0522 -0.05324,-0.11957 -0.109552,-0.12352 -0.0075,0.0359 0,0.0767 -0.02175,0.0827 -0.298954,0.0837 -0.187833,-0.20017 -0.283882,0.0408 -0.08353,-0.2236 -0.01197,0.0837 -0.109251,-0.0827 z m 5.245739,0.78176 c 0.08248,-0.0299 0.117426,0.19071 0.130917,-0.0408 -0.07048,0.10305 -0.08676,-0.14787 -0.130917,0.0408 z m -0.131519,-0.0817 c 0.06524,-0.0113 0.133317,0.11505 0.153188,-0.0418 -0.05623,-0.0369 -0.124096,-0.0662 -0.153188,0.0418 z m -0.633521,-0.49393 c 0.184679,0.1887 0.506353,0.29078 0.524573,0.41128 0.07348,0.005 0.115625,0.0827 0.152887,-0.0408 -0.229593,-0.0896 -0.451236,-0.4123 -0.67746,-0.37047 z m 2.251107,2.09781 c 0.02023,0.11249 0.06823,-0.0574 0.131226,0 0.04349,0.2186 0.210246,0.20813 0.240683,0.45313 -0.05999,-0.15536 -0.181223,-0.11559 -0.284629,-0.24699 0.01652,0.12053 0.118244,0.0796 0.109779,0.24699 -0.112921,-0.10105 8.29e-4,0.0438 -0.04423,0.1235 -0.06299,-0.0756 -0.06824,-0.0671 -0.15312,-0.0418 0.07536,-0.22654 -0.175914,-0.14987 -0.153184,-0.4113 -0.142847,0.0225 -0.18671,-0.14084 -0.262135,-0.24596 0.01275,-0.11955 0.03448,0.0632 0.06598,0.0408 -0.05848,-0.16332 -0.114268,-0.10501 -0.175153,-0.2878 -0.104977,0.13494 -0.289126,-0.12451 -0.393054,-0.24699 0.101817,-0.0733 0.214522,0.243 0.305767,0.20517 0.01948,-0.13239 -0.07123,-0.0577 -0.08758,-0.12352 0.0075,-0.0478 0.09629,-0.17028 0,-0.16431 0.02325,0.21063 -0.163153,-0.0214 -0.284023,0 0.07123,-0.17229 -0.186259,-0.24152 -0.262434,-0.20566 0,-0.0483 0.03972,-0.0349 0.06598,-0.0414 -0.0315,-0.11899 -0.134889,-0.10163 -0.174855,-0.20566 -0.04349,0 -0.02773,0.11207 -0.08728,0.0827 8.29e-4,0.0398 0.02698,0.0314 0.04349,0.0408 -0.07882,0.14341 -0.06448,-0.10404 -0.02175,-0.16432 -0.0075,-0.0861 -0.05849,0.0597 -0.08729,-0.0419 -0.05098,6.3e-4 0.0082,0.11306 0.04349,0.0827 -0.119291,0.0662 -0.192025,-0.44017 -0.371383,-0.20614 -0.08173,-0.0564 0.06374,-0.005 0.04349,-0.0817 -0.06524,-0.11956 -0.140221,0.0224 -0.152888,-0.16432 -0.111429,0.13435 -0.110608,-0.008 -0.240253,0.0407 -0.06973,-0.0348 0.039,-0.0544 0.06525,-0.0407 0.01499,-0.11052 -0.04499,-0.0796 -0.06525,-0.12351 0.01349,0.0234 -0.176128,0.1429 -0.04349,0.32865 0.03674,-0.0259 0.01349,-0.0941 -0.02175,-0.0817 0.06973,-0.0881 0.09606,0.25595 0.196829,0.24598 0.09103,-6.2e-4 0.107679,-0.14191 0.196533,-0.0408 -0.02325,0.17824 -0.08332,-0.1166 -0.130928,0.0827 0.144189,0.007 0.252618,-0.014 0.371162,0.12349 0.02023,0.0234 0.03225,0.0956 0.08751,0.20564 0.05849,0.11546 0.14157,-0.0113 0.218496,0.0408 0.03225,0.0218 0.05098,0.131 0.08728,0.16532 0.06823,0.0623 0.161136,0.0428 0.197135,0.0817 0.02849,0.031 -0.0435,-0.014 0.04349,0.0408 0.06597,0.0418 0.393279,0.3869 0.415239,0.5766 0.190235,-0.0508 0.344408,0.30724 0.502611,0.45214 0,0.17526 -0.09786,-0.0906 -0.152886,-0.0817 0.02473,0.2151 0.172753,0.19569 0.196522,0.4113 0.02325,-0.0698 0.02551,-0.0961 0.04348,-0.20614 0.0345,0.0722 0.100555,0.0857 0.109559,0.20614 -0.05924,0.0294 -0.04425,-0.0817 -0.08758,-0.0827 0,0.0817 0.06,0.0528 0.04349,0.16432 0.06598,0.01 0.07498,-0.15136 0.131438,-0.0407 0.0082,0.0702 -0.01726,0.0777 -0.04349,0.0817 0.287854,0.54176 0.565289,1.10295 0.852326,1.64669 -0.06299,0.0127 0.144641,0.45711 0.152886,0.61645 -0.0075,-0.58259 -0.280128,-0.87537 -0.393349,-1.31555 0.05098,0.0602 0.04048,0.0861 0.109245,0.0408 -0.105569,0.0786 0.112168,0.488 0.152893,0.2878 -0.01801,0.0786 -0.01277,0.23605 0.04423,0.37049 0.039,0.005 0.04574,-0.0508 0.08728,-0.0418 0.03973,0.21611 0.06299,0.20912 0.109245,0.41228 -0.07123,-0.73047 -0.390423,-1.34992 -0.677453,-1.81101 0.170357,0.1459 0.381954,0.57016 0.524273,0.90575 0.03747,-0.17427 0.04423,0.0766 0.08757,-0.0418 0.366889,1.15324 0.632172,2.14812 0.655719,3.82668 -0.01801,-0.0214 -0.03525,-0.0428 -0.06524,-0.0408 0.06672,0.18175 0.09125,0.42923 0,0.5348 0.0075,0.0641 0.03824,-0.0359 0.04349,0.0408 -0.03074,0.0234 -0.11457,0.44168 -0.04349,0.61696 -0.02923,-0.0488 -0.03449,-0.0154 -0.06599,0 0.02023,0.77878 -0.324823,1.31853 -0.393578,1.72784 -0.223297,0.58361 -0.711886,1.55059 -1.1581,1.85185 0,0.0584 -0.0075,0.11701 0.02175,0.12351 -0.02399,-0.005 -0.08938,0.14086 -0.153109,0.0408 -0.01726,0.28432 -0.215348,0.34358 -0.415029,0.49393 8.29e-4,0.0404 0.02698,0.0324 0.04349,0.0414 -0.141271,-0.0607 -0.306824,0.29428 -0.436995,0.24696 -0.05024,0.0573 8.3e-4,0.30227 -0.109253,0.24698 0.009,-0.0796 0.08466,-0.0323 0.06524,-0.16431 -0.374309,0.28283 -0.73505,0.4377 -1.027405,0.69911 -0.02097,-6.2e-4 -0.01726,-0.0508 -0.02175,-0.0827 -0.0854,0.16433 -0.200495,0.1091 -0.306072,0.16533 0.0075,0.0553 0.05474,0.0338 0.08758,0.0407 -0.977918,0.46954 -1.92097,0.76533 -2.797802,0.73994 0.0075,-0.0449 0.04349,-0.027 0.04349,-0.0817 -0.08098,0.005 -0.05474,0.0593 -0.04349,0.16433 -0.0465,-0.0912 -0.182512,-0.0554 -0.284411,-0.0408 -1.492146,0.20265 -3.443775,-0.36549 -5.048847,-0.86442 -0.02175,-0.0553 -0.05848,-0.0817 -0.08758,-0.12351 -0.655488,-0.15386 -1.313609,-0.67521 -2.09792,-1.19258 0.116146,0.12252 -0.10205,0.0906 -0.02175,-0.0419 -0.08226,0.0956 -0.04573,-0.0183 -0.04349,0 -0.0098,-0.0827 -0.30578,-0.35452 -0.415549,-0.32864 -0.309756,-0.28781 -0.557341,-0.75537 -0.764742,-1.02873 -0.256296,-0.30375 -0.486713,-1.00086 -0.677692,-1.56403 -0.04649,0.014 0.0315,0.12745 0.04349,0.16531 -0.144408,-0.35603 -0.334566,-1.08403 -0.371385,-1.81052 -0.02175,-0.0567 -0.036,0.0174 -0.06598,-0.0822 0,-0.10559 0.01651,-0.0503 0.04349,-0.0418 -0.07274,-0.85846 -0.03225,-2.25318 0.196833,-2.92043 -0.08068,-0.0776 0.03598,-0.10954 0.02175,-0.32962 0.124924,0.0407 0.07123,-0.43272 0.196827,-0.45215 0.05773,-0.40581 0.281486,-0.83753 0.437299,-1.19355 -0.09815,0.0353 -0.122747,0.20713 -0.174857,0.32913 -0.02249,-0.0996 0.132264,-0.43469 0.196527,-0.36996 0.07348,-0.0951 0.102868,-0.27287 0.153114,-0.4123 0.05173,-0.0522 0.04874,0.0214 0.08735,-0.0817 1.364895,-2.42247 3.791619,-4.13588 6.273076,-4.32014 0.732198,-0.0544 1.535255,0.0713 2.251337,0.20566 0.192025,0.0369 0.435345,0.10657 0.568138,0.24698 0.217221,-0.0613 0.490459,0.19419 0.611855,0.0408 0.383309,0.23205 0.767136,0.3635 1.158318,0.49396 0,0.0583 0,0.11645 0.02175,0.12351 0.0225,-0.0264 0.0225,-0.0946 0.06524,-0.0827 0.0075,0.0349 -0.0082,0.0389 -0.02175,0.0418 0.792476,0.36151 1.786068,1.15323 2.404517,1.93352 0.05623,0.0708 0.300221,0.41726 0.196531,0.45211" />
      <path
         inkscape:connector-curvature="0"
         id="path404-2-2"
         style="fill:#ffffff;fill-opacity:1;fill-rule:evenodd;stroke:none;stroke-width:0.0313599"
         d="m 55.451513,271.43198 c 0.0041,0.0552 -0.08022,0.11335 -0.02875,0.15867 -0.0041,-0.0551 0.08109,-0.11327 0.02875,-0.15867 z m 0.3539,-0.93846 c -0.02082,0.0662 -0.04543,0.01 -0.102759,0.002 0.0077,0.046 0.08046,0.0604 0.0503,0.1727 -0.02258,-0.007 -0.01,-0.039 -0.0089,-0.0628 -0.148287,0.19156 -0.151689,0.37792 -0.246101,0.56875 0.02366,0.0256 0.05151,0.11772 0.05966,0.0117 0.02263,0.007 0.01,0.0392 0.0098,0.0629 -0.143871,0.0443 -0.05309,0.1928 -0.131286,0.38565 -0.02388,-0.0338 -0.06021,-0.0265 -0.0667,0.0289 -0.0022,0.0255 0.03608,0.027 0.03957,0.007 -0.0019,0.21984 -0.213125,0.59927 -0.198422,0.762 -0.03043,5.7e-4 -0.111963,0.0248 -0.108018,0.14433 0.0049,0.0466 0.03459,-0.0187 0.05543,0.0302 -0.135367,0.3793 -0.160504,0.9566 -0.31838,1.31322 0.01434,0.0301 0.04672,0.0484 0.04494,0.0898 -0.185628,0.6564 -0.26754,1.41738 -0.452819,2.16854 0.0419,0.0109 0.02195,-0.0686 0.03759,-0.0956 0.04413,-0.0463 -0.01018,0.11873 -0.0051,0.16261 -0.01466,-0.006 -0.01586,-0.0237 -0.03608,-0.0269 -0.0066,0.0765 -0.0045,0.16643 -0.03464,0.30043 0.0019,-0.19906 -0.101254,0.32778 -0.107502,0.36944 -0.04546,0.35303 -0.180031,0.89608 -0.191134,1.17242 -0.0616,0.0111 -0.113826,0.0362 -0.124294,0.12092 -0.07784,-0.0599 -0.13563,0.0293 -0.2449,-0.003 0.0083,0.0181 0.01481,0.0359 0.0089,0.0631 -0.127806,-0.10255 -0.354869,-0.0568 -0.453915,-0.20445 -0.06961,-0.10386 0.0078,-0.30999 -0.05066,-0.39779 0.0049,-0.0569 0.065,-0.0398 0.09389,-0.0649 0.108725,-0.43574 0.01702,-1.08349 -0.0096,-1.76121 -0.02985,-0.73529 0.0026,-1.44354 0.0023,-2.16781 -1.25e-4,-0.17532 0.03792,-0.30677 0.05194,-0.50229 0.0136,-0.15873 -0.04003,-0.3037 -0.02089,-0.45376 0.0039,-0.045 0.04764,-0.10798 0.04901,-0.15507 2.85e-4,-0.10699 -0.07679,-0.2461 -0.02249,-0.33115 -2.42e-4,0.003 0.03604,0.0274 0.03608,0.027 0.03827,-0.32154 -0.09514,-0.55016 0.03469,-0.8733 -0.0819,0.0604 0.103981,-0.3178 -0.02786,-0.41407 0.03347,-0.0994 -0.01098,-0.16304 0.05594,-0.19476 -0.06354,-0.0813 -0.02586,-0.33364 0.03851,-0.4427 -0.08033,0.11462 -0.01934,-0.26416 -0.02347,-0.43385 0.01477,0.0151 0.03039,0.0303 0.03957,0.007 0.0015,-0.20539 0.03569,-0.60376 0.09605,-0.98509 0.07747,-0.48721 0.210171,-1.00934 0.356439,-1.40849 0.05474,0.0273 -0.03511,0.0455 -0.01835,0.0991 0.171393,-0.22891 0.261292,-0.52935 0.398746,-0.62364 -0.02061,0.0112 -0.03657,0.0305 -0.05006,0.0523 0.204253,-0.32306 0.855798,-0.9285 1.54718,-0.64136 0.220377,0.2455 0.367405,0.54232 0.50184,0.84751 0.03712,0.34783 0.04987,0.75055 -0.009,1.18488 -0.03122,0.22866 -0.139393,0.43657 -0.18475,0.6826 -0.0027,0.0319 0.02554,0.0768 0.02212,0.10607 -0.0089,0.10405 -0.195258,0.22122 -0.138138,0.42504 -0.0864,-0.0225 -0.0275,0.19594 -0.100542,0.33005 0.02746,-0.0499 -0.100317,0.0462 -0.08412,0.12781 0.07809,-0.0471 0.08224,0.019 -0.0017,0.0196 0.02036,0.21043 -0.200956,0.295 -0.05121,0.40006"
         sodipodi:nodetypes="ccccccccccccccccccccccccccccccccccccccccccccccccccccccccccc" />
      <path
         inkscape:connector-curvature="0"
         id="path410-2-5"
         style="fill:#ffffff;fill-opacity:1;fill-rule:evenodd;stroke:none;stroke-width:0.0313599"
         d="m 54.495842,280.58763 c -0.004,0.0472 0.05515,0.002 0.04653,-0.0325 0.01585,0.10617 -0.116213,0.21383 -0.143266,0.34213 -0.03494,0.002 -0.03467,-0.0222 -0.03258,-0.0465 -0.160084,0.18551 -0.399037,0.31486 -0.55792,0.36986 -0.126956,-0.006 -0.354961,0.0316 -0.471676,0.11946 0.01019,-0.0152 0.02367,-0.0163 0.02716,-0.0357 -0.19213,-0.017 -0.229622,-0.14182 -0.422084,-0.15831 -0.16953,-0.26223 -0.377734,-0.48435 -0.339168,-0.83861 0.05765,-0.53704 0.555057,-0.75063 1.030145,-0.83707 0.180084,0.0809 0.330364,0.009 0.534969,0.0968 -0.01257,0.043 -0.08503,-0.007 -0.122622,-0.002 0.227292,0.0327 0.357594,0.24563 0.429154,0.34336 0.008,0.0104 0.03102,-0.0289 0.02719,-0.036 0.131935,0.23448 0.170603,0.52453 -0.0068,0.71485"
         sodipodi:nodetypes="ccccccccccccccc" />
      <path
         inkscape:connector-curvature="0"
         id="path16-2"
         style="fill:#ffffff;fill-opacity:1;fill-rule:evenodd;stroke:none;stroke-width:0.0529862"
         d="m 21.840218,267.18659 -2.08984,0.23082 c -2.038611,-0.19373 -3.336517,0.0704 -5.10812,0.19469 0.529748,4.33852 0.904302,9.17226 1.347201,12.76315 1.384747,0.12254 2.780013,-0.21541 4.18802,-0.41329 1.638879,-0.0685 3.104747,-0.41891 4.567525,-0.34308 2.171985,0.0267 1.900175,0.13808 3.445502,0.0382 0.548047,-0.0382 1.11455,0.0184 1.507393,-0.3113 -0.08003,-0.24402 0.02503,-0.67892 0.0084,-1.11407 -0.01866,-0.47312 -0.115402,-1.00457 -0.159497,-1.51338 -0.277759,-3.23942 -0.298866,-6.7882 -0.465294,-9.55492 -2.059467,-0.14634 -5.172862,-0.10933 -7.241319,0.0228 z m 7.977936,13.49551 c -1.978647,-0.0884 -4.130268,-0.18559 -6.348709,0.1112 l -1.802296,0.16005 c -1.067159,0.005 -0.81166,0.0399 -1.797495,0.15147 -1.761876,0.19942 -3.563975,0.26209 -4.952117,-0.0303 -0.03568,-0.1742 -0.154757,-0.25878 -0.318172,-0.29434 -0.507279,-0.79413 -0.436782,-1.93312 -0.518664,-3.26622 -0.04886,-0.79357 -0.18316,-1.62715 -0.268175,-2.44369 -0.179916,-1.7155 -0.160088,-3.52218 -0.193407,-5.07463 -0.02779,-1.2582 -0.41812,-2.61878 0.48048,-3.48031 2.249761,-0.31631 4.785442,-0.53921 7.255439,-0.45148 1.871385,-0.0439 2.522779,-0.31681 3.504758,-0.52767 1.431717,-0.0696 3.102535,-0.1859 4.416514,-0.21196 0.42246,0.13556 0.525438,0.40262 0.730519,0.76127 0.115275,0.20077 0.24016,0.34661 0.282621,0.51468 0.10691,0.42701 0.0065,0.99133 0.01497,1.53241 0.02153,1.49654 0.308257,2.87067 0.376555,4.14808 0.05416,1.00273 0.09716,1.99312 0.155701,2.92999 0.102158,1.63564 0.219291,3.17844 0.461125,4.05738 -0.08557,0.21534 -0.252044,0.35697 -0.282715,0.62372 -0.3224,0.0273 -0.487933,0.45599 -0.733374,0.29098 -0.01117,0.29036 -0.331647,0.25765 -0.463486,0.4991"
         sodipodi:nodetypes="ccccccccccccccccccccccccccccccccccc" />
      <path
         style="fill:#ffffff;fill-opacity:1;stroke-width:0.0578433"
         d="m 50.910252,280.67878 c -0.0106,0.0468 -0.118332,0.19312 -0.239384,0.3251 -1.108828,1.20895 -3.191813,2.27699 -6.272903,3.21638 -1.555097,0.47415 -2.46065,0.61126 -4.340356,0.65724 -1.306262,0.032 -2.471827,-0.11769 -4.267173,-0.54784 -1.335883,-0.32005 -2.241941,-0.63024 -3.028507,-1.03676 -0.826573,-0.4272 -0.840776,-0.43234 -0.804636,-0.29135 0.03754,0.14642 0.543514,0.98882 0.724455,1.20612 0.09393,0.11282 0.117188,0.20586 0.08669,0.34694 -0.03621,0.16749 -0.06423,0.19291 -0.213779,0.19394 -0.168226,10e-4 -0.354262,-0.13571 -0.456777,-0.33603 -0.02162,-0.0423 -0.111184,-0.16054 -0.199036,-0.26289 -0.520957,-0.6069 -1.305526,-1.74973 -1.382969,-2.01448 -0.03209,-0.1097 -0.149674,-0.27799 -0.261303,-0.37398 -0.242922,-0.20888 -0.29084,-0.3374 -0.192025,-0.51502 0.09971,-0.17923 0.227767,-0.18117 0.570404,-0.009 0.292014,0.14704 1.062447,0.29567 1.632452,0.3149 0.351938,0.0119 0.983131,0.0213 1.222768,0.0181 0.115681,-0.002 0.304172,-8.8e-4 0.418871,10e-4 0.114699,0.002 0.328406,0.006 0.474906,0.008 0.1465,0.002 0.321322,0.0349 0.388493,0.0722 0.100432,0.0559 0.110758,0.0981 0.05813,0.23733 -0.07085,0.18753 -0.0851,0.19301 -0.655195,0.25261 -0.749768,0.0784 -1.074269,0.0999 -1.5689,0.1038 -0.271799,0.002 -0.487164,0.0161 -0.478589,0.031 0.03339,0.0578 0.601637,0.35993 1.236416,0.6573 0.594885,0.27869 0.853706,0.36224 2.452685,0.79175 1.937728,0.52051 2.170534,0.55994 3.723455,0.63069 0.97199,0.0443 2.412802,-0.0399 3.133083,-0.18311 1.249595,-0.24842 3.139042,-0.8182 4.486413,-1.35292 1.478036,-0.58657 2.883731,-1.40437 3.676709,-2.13905 0.0723,-0.067 0.0903,-0.0677 0.0756,-0.003 z"
         id="path1186" />
    </g>
  </g>
</svg>
