<?xml version="1.0" encoding="UTF-8" standalone="no"?>
<svg
   xmlns:dc="http://purl.org/dc/elements/1.1/"
   xmlns:cc="http://creativecommons.org/ns#"
   xmlns:rdf="http://www.w3.org/1999/02/22-rdf-syntax-ns#"
   xmlns:svg="http://www.w3.org/2000/svg"
   xmlns="http://www.w3.org/2000/svg"
   width="200"
   height="200"
   viewBox="0 0 52.916665 52.916668"
   version="1.1"
   id="svg1332">
  <defs
     id="defs1326" />
  <metadata
     id="metadata1329">
    <rdf:RDF>
      <cc:Work
         rdf:about="">
        <dc:format>image/svg+xml</dc:format>
        <dc:type
           rdf:resource="http://purl.org/dc/dcmitype/StillImage" />
        <dc:title></dc:title>
      </cc:Work>
    </rdf:RDF>
  </metadata>
  <g
     style="fill:#ffffff"
     id="layer1"
     transform="translate(0,-244.08332)">
    <path
       style="fill:#ffffff;stroke-width:0.1860521"
       d="m 26.377773,254.35366 c -10.653375,0.004 -11.570795,0.0288 -11.937135,0.32559 -0.21826,0.17681 -0.49035,0.50435 -0.60466,0.72786 -0.3157,0.61732 -0.28678,30.49497 0.0302,31.12921 0.28613,0.57263 1.32443,1.11556 2.13415,1.11595 l 0.60467,3.7e-4 v 1.26094 c 0,2.16281 0.70478,2.60977 2.21373,1.40375 0.47102,-0.37645 0.9439,-0.74931 1.0509,-0.82851 0.11058,-0.0819 0.63255,0.21048 1.209338,0.67734 0.558136,0.45176 1.200942,0.82461 1.428824,0.82852 0.690145,0.0118 1.022789,-0.73126 0.950972,-2.12506 l -0.06287,-1.2177 7.072887,3.7e-4 c 6.532725,3.7e-4 7.122391,-0.026 7.721157,-0.34485 1.025249,-0.54596 1.091103,-0.96162 1.102875,-6.95733 l 0.01055,-18.65754 c 0,-5.89399 -0.07159,-6.42312 -0.952068,-7.03982 -0.389314,-0.27271 -1.601176,-0.30281 -11.973475,-0.29909 z m 8.274229,1.11195 v 5.86065 19.34942 5.67459 h -9.772458 -9.772096 l -0.18496,-0.48584 c -0.11817,-0.31083 -0.16667,-5.80906 -0.13482,-15.26319 0.0435,-12.89629 0.0853,-14.79964 0.32886,-14.95357 0.16641,-0.10517 4.16609,-0.17745 9.907282,-0.17915 z m 1.302369,0 h 0.800166 c 0.440014,0 0.90049,0.10068 1.023281,0.22348 0.163829,0.16383 0.223122,1.7241 0.223122,5.86065 v 5.63715 7.8142 5.56157 c 0,6.1894 0.09145,5.78761 -1.317622,5.78761 h -0.728947 v -5.67459 -5.67459 -7.8142 -5.86063 z m -10.834266,5.84648 c -0.299362,0 -0.598618,0.0197 -0.780181,0.0588 -0.824447,0.17802 -1.497294,0.53742 -2.072742,1.10723 -0.455786,0.45132 -0.766005,0.94454 -0.985132,1.56546 -0.327841,0.92898 -0.282415,2.01648 0.122826,2.94049 0.133388,0.30414 0.418995,0.76579 0.602851,0.97423 l 0.109746,0.12464 -0.491297,0.24274 c -0.837388,0.41424 -1.503138,0.89543 -2.113798,1.52802 -1.25625,1.30136 -1.88996,2.85999 -1.88996,4.64659 v 0.4059 h 7.497687 7.498042 v -0.4059 c 0,-0.22342 -0.01498,-0.55315 -0.03305,-0.73259 -0.234092,-2.32654 -1.702013,-4.34337 -3.968145,-5.45219 -0.251243,-0.12294 -0.461862,-0.22802 -0.468402,-0.23329 -0.0063,-0.005 0.04641,-0.0794 0.117735,-0.16462 0.33424,-0.39921 0.635114,-0.99077 0.774739,-1.5233 0.371664,-1.4175 -0.02925,-2.88763 -1.067982,-3.91618 -0.572825,-0.56722 -1.25205,-0.93002 -2.072742,-1.10723 -0.181563,-0.0392 -0.480819,-0.0588 -0.780181,-0.0588 z m 0,1.00838 c 0.253907,0 0.507829,0.0245 0.704961,0.0734 0.306703,0.076 0.691298,0.24432 0.982229,0.43025 0.237656,0.15188 0.611169,0.51166 0.785631,0.75656 0.401049,0.563 0.624706,1.35092 0.566151,1.99534 -0.11983,1.31897 -1.017121,2.38566 -2.285681,2.71701 -0.260672,0.0681 -0.94112,0.10945 -1.178453,0.0716 -0.801362,-0.12781 -1.53021,-0.55732 -1.997149,-1.17699 -0.703048,-0.93302 -0.815952,-2.15896 -0.294706,-3.19741 0.153745,-0.3063 0.266698,-0.4633 0.538896,-0.74821 0.386128,-0.40415 0.918948,-0.71082 1.473153,-0.84814 0.197139,-0.0489 0.451053,-0.0734 0.704968,-0.0734 z m 2.112345,6.51873 0.290705,0.1032 c 0.159835,0.0569 0.460702,0.188 0.668628,0.29144 1.662402,0.827 2.836214,2.21436 3.239922,3.82968 0.06856,0.27449 0.146805,0.70136 0.146805,0.80127 0,0.0233 -1.936161,0.0334 -6.458405,0.0334 -5.445017,0 -6.458047,-0.007 -6.458047,-0.0433 0,-0.10975 0.10364,-0.63193 0.17915,-0.90192 0.43924,-1.57036 1.60106,-2.90875 3.22321,-3.7134 0.389869,-0.1934 0.855957,-0.38192 0.943701,-0.38192 0.01976,0 0.166114,0.0632 0.32559,0.14027 0.612401,0.29619 1.110427,0.4082 1.802386,0.40553 0.686088,-0.003 1.191786,-0.12034 1.796199,-0.41717 z m -9.325142,18.81343 h 2.1396 2.139605 v 0.93462 0.93462 l -0.946978,-0.74857 c -0.520827,-0.41169 -1.057507,-0.74856 -1.192627,-0.74856 -0.13511,0 -0.67179,0.33687 -1.19262,0.74856 l -0.94698,0.74857 v -0.93462 z"
       id="path936-5" />
  </g>
</svg>
