<?xml version="1.0" encoding="UTF-8" standalone="no"?>
<svg
   xmlns:dc="http://purl.org/dc/elements/1.1/"
   xmlns:cc="http://creativecommons.org/ns#"
   xmlns:rdf="http://www.w3.org/1999/02/22-rdf-syntax-ns#"
   xmlns:svg="http://www.w3.org/2000/svg"
   xmlns="http://www.w3.org/2000/svg"
   width="200"
   height="200"
   viewBox="0 0 52.916665 52.916668"
   version="1.1"
   id="svg1332">
  <defs
     id="defs1326" />
  <metadata
     id="metadata1329">
    <rdf:RDF>
      <cc:Work
         rdf:about="">
        <dc:format>image/svg+xml</dc:format>
        <dc:type
           rdf:resource="http://purl.org/dc/dcmitype/StillImage" />
        <dc:title></dc:title>
      </cc:Work>
    </rdf:RDF>
  </metadata>
  <g
     style="fill:#ffffff"
     id="layer1"
     transform="translate(0,-244.08332)">
    <path
       style="fill:#ffffff;stroke-width:0.21131262"
       d="m 23.145136,288.88509 -0.363148,-0.95091 h -8.312089 c -4.5716498,0 -8.4625076,-0.0577 -8.6463493,-0.12827 -0.2996851,-0.115 -0.3342469,-1.44925 -0.3342469,-12.90535 v -12.77709 l -1.90181,-2.24582 c -1.0460008,-1.23521 -1.9018171,-2.40937 -1.9018171,-2.60925 0,-0.393 2.4768851,-2.71911 2.8970335,-2.72067 0.1405886,-5.3e-4 0.5773464,0.35564 0.9705627,0.79147 0.3932093,0.43583 1.0600998,1.17279 1.4819851,1.63767 l 0.7670527,0.84525 0.00563,-1.8231 c 0.00422,-1.24338 0.094136,-1.8965 0.283779,-2.05388 0.5454005,-0.45265 6.9992493,-0.93135 11.0271713,-0.81793 3.162559,0.0891 4.15087,0.19786 5.863922,0.64551 l 2.060295,0.53841 2.060295,-0.56298 c 1.99909,-0.54625 2.223547,-0.56229 7.55443,-0.53978 3.385371,0.0143 6.264634,0.13366 7.501593,0.31101 l 2.007472,0.28781 0.06244,1.42636 0.06251,1.42636 h 1.145137 c 0.915882,0 1.188917,0.0818 1.36387,0.40873 0.144857,0.27066 0.218747,5.44075 0.218747,15.30507 0,13.26038 -0.0365,14.93281 -0.332067,15.2284 -0.290649,0.29066 -1.371929,0.33207 -8.67132,0.33207 H 31.67694 l -0.407597,0.95091 -0.40761,0.9509 h -3.67677 -3.676772 z m 7.076895,-1.32071 c 0.139266,-0.43583 0.340702,-0.88664 0.447629,-1.0018 0.121975,-0.13136 3.281615,-0.21009 8.479813,-0.21131 l 8.285389,-10e-4 0.05436,-14.10511 0.05436,-14.10513 h -0.524509 -0.524501 l -0.05808,11.46371 -0.05808,11.46371 -1.063103,1.90182 -1.063088,1.90181 -17.297959,0.0541 c -12.158913,0.0376 -17.3797329,-0.0142 -17.5731943,-0.17477 -0.1513615,-0.12562 -0.5357106,-1.00576 -0.8541076,-1.95588 l -0.5789004,-1.72747 -0.014978,-8.05014 -0.014978,-8.05012 -0.5717067,-0.71935 -0.5717139,-0.71936 0.04402,11.41089 0.04402,11.41088 7.9242237,0.0242 c 4.358324,0.0133 8.14352,0.0371 8.411555,0.0528 0.362677,0.0213 0.594933,0.2719 0.907972,0.97958 l 0.420633,0.95089 h 2.720786 2.720787 z m -4.499538,-4.0399 c 0.533228,-0.0217 0.686762,-0.12103 0.686762,-0.44459 0,-0.48397 -1.047977,-0.83915 -4.120589,-1.39657 -2.022014,-0.36682 -10.680381,-0.6754 -12.000738,-0.4277 l -0.7315272,0.13723 0.4069496,1.10471 0.4069496,1.10471 7.332708,-0.0249 c 4.032993,-0.0137 7.641759,-0.0376 8.019485,-0.0528 z m 18.099981,-0.96358 c 0.301598,-0.51463 0.548361,-1.04973 0.548361,-1.18909 0,-0.37726 -10.330783,-0.13576 -12.573105,0.29393 -3.561702,0.68249 -3.909281,0.80154 -3.909281,1.33888 v 0.492 h 7.692825 7.692839 z M 26.409255,268.288 v -12.67285 l -1.109386,-0.31303 c -3.092443,-0.87255 -7.71866,-1.06629 -13.10139,-0.54867 l -2.9055491,0.27942 0.00492,2.34553 0.00492,2.34554 1.9341571,2.21879 1.934156,2.21877 5.509825,0.10567 5.509823,0.10565 v 0.63394 0.63394 l -4.701698,0.0569 c -2.585949,0.0313 -4.701712,0.11403 -4.701712,0.18389 0,0.0699 0.792502,1.04273 1.761123,2.16191 2.039636,2.35668 1.992817,2.27915 3.000648,4.96952 1.165058,3.11007 0.842807,3.31363 -2.377235,1.50176 -1.998801,-1.1247 -2.158938,-1.27193 -4.814631,-4.42676 -1.510886,-1.79485 -2.8183814,-3.26822 -2.9055558,-3.27417 -0.087167,-0.006 -0.1584847,2.9176 -0.1584847,6.49676 v 6.50757 l 5.2299895,-0.007 c 5.170366,-0.007 7.8741,0.21406 10.111359,0.82827 1.979218,0.54337 1.774976,1.96453 1.774976,-12.35081 z m -14.668812,-8.31388 c -0.209192,-0.15296 -0.344928,-0.46202 -0.301647,-0.68677 0.07572,-0.39317 0.318868,-0.40867 6.412304,-0.40867 5.928446,0 6.338265,0.0243 6.406755,0.37995 0.183075,0.95059 -0.08899,0.99359 -6.286594,0.99359 -4.503568,0 -5.938045,-0.0641 -6.230818,-0.2781 z m 18.366785,20.57559 c 3.257601,-0.63185 7.426584,-0.92669 11.359739,-0.8034 l 3.541154,0.11102 -0.0545,-12.39113 -0.05457,-12.39114 -2.324427,-0.2443 c -2.952944,-0.31036 -9.30021,-0.34706 -11.093926,-0.0641 -0.755429,0.11916 -1.872754,0.35882 -2.482911,0.53259 l -1.109401,0.31595 v 12.67286 c 0,6.97007 0.02377,12.67257 0.05274,12.67222 0.02904,-3.7e-4 1.00374,-0.18508 2.165963,-0.41051 z m -0.02925,-4.13207 c -0.06694,-0.17433 -0.06694,-0.4596 0,-0.63394 0.104319,-0.27183 1.008556,-0.31697 6.349517,-0.31697 3.960818,0 6.275857,0.0776 6.359656,0.2132 0.07244,0.11727 0.07163,0.40254 -0.0014,0.63394 -0.129351,0.40757 -0.328452,0.42073 -6.359649,0.42073 -5.339392,0 -6.24344,-0.0451 -6.347744,-0.31696 z m 0,-5.49413 c -0.06694,-0.17433 -0.06694,-0.45961 0,-0.63394 0.104319,-0.27182 1.008556,-0.31697 6.349517,-0.31697 3.960818,0 6.275857,0.0776 6.359656,0.21321 0.07244,0.11726 0.07163,0.40253 -0.0014,0.63394 -0.129436,0.40755 -0.328523,0.42073 -6.359719,0.42073 -5.339392,0 -6.243447,-0.0451 -6.347751,-0.31697 z m 0.01674,-5.45059 c -0.05766,-0.15038 -0.07851,-1.6956 -0.0462,-3.43382 l 0.05872,-3.16042 6.219243,-0.056 c 4.834777,-0.0436 6.257019,0.003 6.388973,0.21132 0.282435,0.44496 0.213889,6.16759 -0.07739,6.45885 -0.380594,0.38059 -12.396999,0.36157 -12.543368,-0.0199 z m 11.317744,-3.21323 v -2.00747 h -5.071505 -5.071505 v 2.00747 2.00748 h 5.071505 5.071505 z m -23.493736,10.44173 c -0.210641,-0.60424 -0.252558,-0.6266 -0.570125,-0.30405 -0.316351,0.3213 -0.311154,0.37156 0.06744,0.65219 0.621675,0.46081 0.752996,0.36986 0.502703,-0.34814 z m -1.495121,-1.51377 0.442334,-0.47545 -4.335801,-5.0715 c -2.384683,-2.78933 -4.5646392,-5.34098 -4.8443327,-5.67034 l -0.5085393,-0.59882 -0.61785,0.51988 -0.6178431,0.51989 4.7925361,5.62347 c 2.635904,3.09291 4.894829,5.62457 5.019849,5.6259 0.12502,10e-4 0.426358,-0.21153 0.669647,-0.47303 z m -10.755446,-12.48573 0.4638446,-0.49373 -0.7863412,-0.96968 -0.7863272,-0.96968 -0.5915789,0.42124 c -0.3253726,0.23168 -0.5915789,0.49274 -0.5915789,0.58013 0,0.22228 1.4773229,1.92546 1.6701303,1.92546 0.086907,0 0.3667413,-0.22219 0.6218513,-0.49374 z"
       id="path938" />
  </g>
</svg>
