<?xml version="1.0" encoding="UTF-8" standalone="no"?>
<svg
   xmlns:dc="http://purl.org/dc/elements/1.1/"
   xmlns:cc="http://creativecommons.org/ns#"
   xmlns:rdf="http://www.w3.org/1999/02/22-rdf-syntax-ns#"
   xmlns:svg="http://www.w3.org/2000/svg"
   xmlns="http://www.w3.org/2000/svg"
   width="200"
   height="200"
   viewBox="0 0 52.916665 52.916668"
   version="1.1"
   id="svg1332">
  <defs
     id="defs1326" />
  <metadata
     id="metadata1329">
    <rdf:RDF>
      <cc:Work
         rdf:about="">
        <dc:format>image/svg+xml</dc:format>
        <dc:type
           rdf:resource="http://purl.org/dc/dcmitype/StillImage" />
        <dc:title></dc:title>
      </cc:Work>
    </rdf:RDF>
  </metadata>
  <g
     style="fill:#ffffff"
     id="layer1"
     transform="translate(0,-244.08332)">
    <path
       style="fill:#ffffff;stroke-width:0.24133274"
       d="m 27.929186,255.04418 c -4.526224,-0.0277 -8.535408,0.2924 -13.556005,1.12613 l -0.04543,24.98076 0.119191,7.00639 c 7.988997,-1.11168 17.099515,-0.62032 22.652578,-0.46477 l 0.173695,-14.21918 -0.04943,-13.93719 -0.187147,-2.47354 -0.07159,-1.62905 c -3.418321,-0.23097 -6.320137,-0.37292 -9.035874,-0.38955 z m 14.260242,0.55671 c -0.42405,0.0158 -0.908756,0.85449 -1.645037,2.47282 -1.358758,2.98651 -1.333753,2.8863 -1.589798,6.4366 -0.121588,1.68603 -0.267303,3.11157 -0.323769,3.16798 l -0.08357,2.69412 -0.230034,3.35365 -0.229662,3.35403 -0.324121,2.74754 -0.06322,1.302 c -0.03474,0.71613 -0.09127,1.84984 -0.12573,2.51934 -0.03439,0.66951 0.03066,1.3099 0.144618,1.42301 0.340569,0.33802 4.219103,0.45982 4.536493,0.14244 0.16139,-0.16141 0.41845,-1.80106 0.57123,-3.64328 l 0.27798,-3.3493 0.0959,-2.17231 0.11956,-1.04254 0.11918,-1.04254 0.2533,-2.7301 c -0.0656,-0.0752 0.0683,-2.32112 0.2976,-4.9907 0.40307,-4.69235 0.39265,-4.94038 -0.31323,-7.4628 -0.60414,-2.15878 -1.00711,-3.19789 -1.48769,-3.17996 z m -14.880539,0.99566 c 2.796731,0.0179 5.521483,0.16506 8.208467,0.28526 l 0.06216,14.15122 0.06216,15.00155 c -5.975561,0.48431 -13.60159,-0.3546 -19.491505,0.40953 -0.03312,3.7e-4 -0.05998,-6.51219 -0.05998,-14.47245 v -14.47319 c 3.908117,-0.73457 7.622931,-0.92492 11.218724,-0.90192 z m 14.737369,2.48664 c 0.10832,0.0197 0.18542,0.24643 0.25037,0.68352 0.0791,0.53236 0.0429,0.57704 -0.47203,0.58105 -0.516951,0.004 -0.533005,-0.0476 -0.215136,-0.70569 0.188866,-0.39098 0.328456,-0.57856 0.436796,-0.55888 z m -16.289378,0.29434 c -6.099722,0 -7.132527,0.0515 -7.251668,0.36193 -0.07645,0.19909 -0.07645,0.52512 0,0.72422 h -3.73e-4 c 0.119127,0.31046 1.151918,0.36192 7.249854,0.36192 6.888026,0 7.115121,-0.0153 7.262938,-0.48075 0.08393,-0.26428 0.08497,-0.58994 0.0021,-0.72386 -0.09572,-0.15483 -2.739428,-0.24346 -7.262945,-0.24346 z m 15.837682,2.69412 c 0.407636,-0.0147 0.822986,0.0565 0.922636,0.15879 0.0999,0.10204 -0.12042,3.97091 -0.48947,8.59728 l -0.670809,8.41159 -0.919005,-0.0792 -0.918632,-0.0792 0.07304,-0.89428 c 0.04008,-0.49184 0.340027,-4.31285 0.666814,-8.49118 l 0.594138,-7.59688 z m -15.837682,0.49529 c -6.099722,0 -7.132527,0.0515 -7.251668,0.36193 -0.07645,0.1991 -0.07645,0.52513 0,0.72422 h -3.73e-4 c 0.119127,0.31047 1.151918,0.36193 7.249854,0.36193 6.888026,0 7.115121,-0.015 7.262938,-0.48039 0.08393,-0.26428 0.08497,-0.59031 0.0021,-0.72423 -0.09572,-0.15483 -2.739428,-0.24346 -7.262945,-0.24346 z m 0,3.08512 c -6.099722,0 -7.132527,0.0518 -7.251668,0.36229 -0.07645,0.1991 -0.07645,0.52477 0,0.72386 0.11912,0.31045 1.151552,0.36193 7.249488,0.36193 6.888019,0 7.115226,-0.0149 7.262931,-0.48039 0.08393,-0.26428 0.08497,-0.5903 0.0021,-0.72422 -0.09572,-0.15484 -2.739428,-0.24347 -7.262945,-0.24347 z m 0,3.18941 c -6.099722,0 -7.132527,0.0518 -7.251668,0.36229 -0.07645,0.1991 -0.07645,0.52477 0,0.72387 0.11912,0.31045 1.151552,0.36192 7.249488,0.36192 6.888019,0 7.115226,-0.0149 7.262931,-0.48039 0.08393,-0.26428 0.08497,-0.58993 0.0021,-0.72386 -0.09572,-0.15483 -2.739428,-0.24383 -7.262945,-0.24383 z m 0,3.33768 c -6.099722,0 -7.132527,0.0515 -7.251668,0.36193 -0.07645,0.19909 -0.07645,0.52476 0,0.72385 h -3.73e-4 c 0.119127,0.31047 1.151918,0.36229 7.249854,0.36229 6.888026,0 7.115121,-0.0153 7.262938,-0.48075 0.08393,-0.26428 0.08497,-0.58994 0.0021,-0.72386 -0.09572,-0.15483 -2.739428,-0.24346 -7.262945,-0.24346 z m 0,2.9463 c -6.099722,0 -7.132527,0.0515 -7.251668,0.36193 -0.07645,0.1991 -0.07645,0.52513 0,0.72423 h -3.73e-4 c 0.119127,0.31046 1.151918,0.36193 7.249854,0.36193 6.888026,0 7.115121,-0.0149 7.262938,-0.48039 0.08393,-0.26428 0.08497,-0.59031 0.0021,-0.72423 -0.09572,-0.15483 -2.739428,-0.24347 -7.262945,-0.24347 z m 0,3.32823 c -6.099722,0 -7.132527,0.0515 -7.251668,0.36193 -0.07645,0.1991 -0.07645,0.52513 0,0.72422 0.11912,0.31046 1.151552,0.36193 7.249488,0.36193 6.888019,0 7.115226,-0.0149 7.262931,-0.48039 0.08393,-0.26428 0.08497,-0.5903 0.0021,-0.72422 -0.09572,-0.15485 -2.739428,-0.24347 -7.262945,-0.24347 z m 14.440487,2.3867 c 0.425296,-0.0133 0.83065,0.0334 0.900828,0.10356 0.155686,0.15572 -0.02686,2.72431 -0.206407,2.9038 -0.07057,0.0706 -0.496388,0.0662 -0.946261,-0.009 l -0.817605,-0.13736 0.147909,-1.41829 0.147895,-1.41791 z m -14.440487,0.55961 c -6.099722,0 -7.132527,0.0518 -7.251668,0.36229 -0.07645,0.19911 -0.07645,0.52477 0,0.72386 0.11912,0.31045 1.151552,0.36193 7.249488,0.36193 6.888019,0 7.115226,-0.0149 7.262931,-0.48039 0.08393,-0.26428 0.08497,-0.58994 0.0021,-0.72386 -0.09572,-0.15484 -2.739428,-0.24383 -7.262945,-0.24383 z"
       id="path938-6" />
  </g>
</svg>
