<?xml version="1.0" encoding="UTF-8" standalone="no"?>
<svg
   xmlns:dc="http://purl.org/dc/elements/1.1/"
   xmlns:cc="http://creativecommons.org/ns#"
   xmlns:rdf="http://www.w3.org/1999/02/22-rdf-syntax-ns#"
   xmlns:svg="http://www.w3.org/2000/svg"
   xmlns="http://www.w3.org/2000/svg"
   width="200"
   height="200"
   viewBox="0 0 52.916665 52.916668"
   version="1.1"
   id="svg1332">
  <defs
     id="defs1326" />
  <metadata
     id="metadata1329">
    <rdf:RDF>
      <cc:Work
         rdf:about="">
        <dc:format>image/svg+xml</dc:format>
        <dc:type
           rdf:resource="http://purl.org/dc/dcmitype/StillImage" />
        <dc:title></dc:title>
      </cc:Work>
    </rdf:RDF>
  </metadata>
  <g
     style="fill:#ffffff"
     id="layer1"
     transform="translate(0,-244.08332)">
    <path
       style="fill:#ffffff;stroke-width:0.1860521"
       d="m 13.603419,286.35027 c -0.218265,-0.1768 -0.490364,-0.50433 -0.604674,-0.72784 -0.315694,-0.61732 -0.286833,-30.49521 0.0301,-31.12944 0.286128,-0.57265 1.324557,-1.11564 2.134272,-1.11603 l 0.604672,-2.8e-4 v -1.26097 c 0,-2.16281 0.70451,-2.60952 2.213463,-1.4035 0.471017,0.37645 0.943939,0.74926 1.050944,0.82846 0.110583,0.0819 0.632547,-0.21051 1.209338,-0.67737 0.558135,-0.45176 1.201236,-0.82457 1.429119,-0.82847 0.690145,-0.0118 1.022593,0.7312 0.950775,2.125 l -0.06273,1.21763 7.07288,-3.9e-4 c 6.532734,-3.5e-4 7.122393,0.026 7.721165,0.34483 1.025243,0.54595 1.091139,0.96162 1.10291,6.95733 0.01034,5.26116 0.01674,5.349 0.391058,5.349 0.209311,0 0.586066,0.2055 0.837238,0.45667 0.447974,0.44798 0.456672,0.51517 0.456672,3.52774 0,2.91968 -0.02004,3.08977 -0.407189,3.45043 -0.223951,0.20864 -0.600706,0.37935 -0.837231,0.37935 h -0.430049 v 5.49451 c 0,5.89399 -0.07153,6.42299 -0.952006,7.03969 -0.389313,0.27268 -1.601203,0.30298 -11.973502,0.29926 -10.653372,-0.004 -11.570843,-0.0288 -11.937183,-0.32559 z m 20.211391,-6.64722 v -5.86065 l -0.790722,-0.004 c -2.231593,-0.0115 -4.172725,-2.27383 -3.774123,-4.39856 0.159147,-0.84833 0.681981,-1.90563 1.152942,-2.33151 0.57322,-0.51837 1.968774,-1.07158 2.714205,-1.07595 l 0.697698,-0.004 v -5.6746 -5.67459 h -9.772338 -9.772345 l -0.184714,0.48584 c -0.118171,0.31082 -0.166783,5.80897 -0.134935,15.26309 0.04346,12.8963 0.0853,14.79972 0.328861,14.95364 0.166408,0.10517 4.166086,0.17753 9.907272,0.17923 l 9.628199,0.003 z m 3.125676,5.63737 c 0.163822,-0.16382 0.223262,-1.72408 0.223262,-5.86064 v -5.63738 h -1.023287 -1.023288 v 5.86065 5.86063 h 0.800025 c 0.440014,0 0.900497,-0.10046 1.023288,-0.22326 z m 1.897731,-15.40511 v -2.60473 H 35.78047 c -1.71441,0 -3.287846,0.0872 -3.581505,0.19844 -1.17434,0.44495 -1.877585,1.67079 -1.651095,2.87807 0.13331,0.71062 0.896777,1.71502 1.48427,1.95269 0.213003,0.0862 1.831507,0.16198 3.59668,0.16847 l 3.209397,0.0118 z m -6.712188,1.13062 c -0.862165,-0.86216 -0.686544,-1.97117 0.401227,-2.53367 1.568141,-0.81092 3.024945,1.35704 1.761138,2.62084 -0.640122,0.64013 -1.468458,0.60674 -2.162365,-0.0872 z m 1.50273,-1.06334 c 0,-0.35036 -0.529136,-0.54284 -0.786046,-0.28593 -0.14646,0.14646 -0.139197,0.2796 0.02609,0.47878 0.265784,0.32024 0.759937,0.19484 0.759937,-0.19285 z m 3.534989,-9.53603 c 0,-6.18939 0.09149,-5.78752 -1.317579,-5.78752 h -0.728996 v 5.67458 5.67459 h 1.023288 1.023287 z m -15.814427,-8.02447 v -0.9346 l -0.94697,0.74854 c -0.520833,0.4117 -1.057513,0.74854 -1.192631,0.74854 -0.135117,0 -0.671799,-0.33684 -1.19263,-0.74854 l -0.94697,-0.74854 v 0.9346 0.93458 h 2.1396 2.139601 z"
       id="path936" />
  </g>
</svg>
